<svg xmlns="http://www.w3.org/2000/svg" xmlns:xlink="http://www.w3.org/1999/xlink" id="Layer_1" x="0" y="0" enable-background="new 0 0 20 20" version="1.1" viewBox="0 0 20 20" xml:space="preserve"><g id="add_column_right"><g><path fill-rule="evenodd" d="M10,11h2v2c0,0.55,0.45,1,1,1s1-0.45,1-1v-2h2c0.55,0,1-0.45,1-1 c0-0.55-0.45-1-1-1h-2V7c0-0.55-0.45-1-1-1s-1,0.45-1,1v2h-2c-0.55,0-1,0.45-1,1C9,10.55,9.45,11,10,11z M19,0H1 C0.45,0,0,0.45,0,1v18c0,0.55,0.45,1,1,1h18c0.55,0,1-0.45,1-1V1C20,0.45,19.55,0,19,0z M7,18H2V2h5V18z M18,18H8V2h10V18z" clip-rule="evenodd"/></g></g></svg>