<svg xmlns="http://www.w3.org/2000/svg" xmlns:xlink="http://www.w3.org/1999/xlink" id="Layer_1" x="0" y="0" enable-background="new 0 0 20 20" version="1.1" viewBox="0 0 20 20" xml:space="preserve"><g id="Rounded_Rectangle_7_2_"><g><path fill-rule="evenodd" d="M5,5C4.45,5,4,5.45,4,6c0,0.55,0.45,1,1,1h10c0.55,0,1-0.45,1-1 c0-0.55-0.45-1-1-1H5z M1,3h18c0.55,0,1-0.45,1-1c0-0.55-0.45-1-1-1H1C0.45,1,0,1.45,0,2C0,2.55,0.45,3,1,3z M13,15 c0.55,0,1-0.45,1-1c0-0.55-0.45-1-1-1H7c-0.55,0-1,0.45-1,1c0,0.55,0.45,1,1,1H13z M17,17H3c-0.55,0-1,0.45-1,1c0,0.55,0.45,1,1,1 h14c0.55,0,1-0.45,1-1C18,17.45,17.55,17,17,17z M19,9H1c-0.55,0-1,0.45-1,1c0,0.55,0.45,1,1,1h18c0.55,0,1-0.45,1-1 C20,9.45,19.55,9,19,9z" clip-rule="evenodd"/></g></g></svg>