<svg xmlns="http://www.w3.org/2000/svg" xmlns:xlink="http://www.w3.org/1999/xlink" id="Layer_1" x="0" y="0" enable-background="new 0 0 20 20" version="1.1" viewBox="0 0 20 20" xml:space="preserve"><g id="align_vertical_center_1_"><g><path fill-rule="evenodd" d="M17,3h-6V1c0-0.55-0.45-1-1-1S9,0.45,9,1v2H3C2.45,3,2,3.45,2,4v4 c0,0.55,0.45,1,1,1h6v2H7c-0.55,0-1,0.45-1,1v4c0,0.55,0.45,1,1,1h2v2c0,0.55,0.45,1,1,1s1-0.45,1-1v-2h2c0.55,0,1-0.45,1-1v-4 c0-0.55-0.45-1-1-1h-2V9h6c0.55,0,1-0.45,1-1V4C18,3.45,17.55,3,17,3z" clip-rule="evenodd"/></g></g></svg>