<svg xmlns="http://www.w3.org/2000/svg" xmlns:xlink="http://www.w3.org/1999/xlink" id="Layer_1" x="0" y="0" enable-background="new 0 0 20 20" version="1.1" viewBox="0 0 20 20" xml:space="preserve"><g id="alignment_right_2_"><g><path fill-rule="evenodd" d="M19,17H5c-0.55,0-1,0.45-1,1c0,0.55,0.45,1,1,1h14c0.55,0,1-0.45,1-1 C20,17.45,19.55,17,19,17z M1,3h18c0.55,0,1-0.45,1-1c0-0.55-0.45-1-1-1H1C0.45,1,0,1.45,0,2C0,2.55,0.45,3,1,3z M19,13h-6 c-0.55,0-1,0.45-1,1c0,0.55,0.45,1,1,1h6c0.55,0,1-0.45,1-1C20,13.45,19.55,13,19,13z M19,9H1c-0.55,0-1,0.45-1,1 c0,0.55,0.45,1,1,1h18c0.55,0,1-0.45,1-1C20,9.45,19.55,9,19,9z M19,5H9C8.45,5,8,5.45,8,6c0,0.55,0.45,1,1,1h10 c0.55,0,1-0.45,1-1C20,5.45,19.55,5,19,5z" clip-rule="evenodd"/></g></g></svg>