<svg xmlns="http://www.w3.org/2000/svg" xmlns:xlink="http://www.w3.org/1999/xlink" id="Layer_1" x="0" y="0" enable-background="new 0 0 20 20" version="1.1" viewBox="0 0 20 20" xml:space="preserve"><g id="Shape_1"><g><path fill-rule="evenodd" d="M9.41,13.41l7.65-7.65l-2.83-2.83l-7.65,7.65L9.41,13.41z M19.41,3.41 C19.78,3.05,20,2.55,20,2c0-1.1-0.9-2-2-2c-0.55,0-1.05,0.22-1.41,0.59l-1.65,1.65l2.83,2.83L19.41,3.41z M18,18H2V2h8.93l2-2H1 C0.45,0,0,0.45,0,1v18c0,0.55,0.45,1,1,1h18c0.55,0,1-0.45,1-1V7.07l-2,2V18z M4,16l4.41-1.59l-2.81-2.79L4,16z" clip-rule="evenodd"/></g></g></svg>