<svg xmlns="http://www.w3.org/2000/svg" xmlns:xlink="http://www.w3.org/1999/xlink" id="Layer_1" x="0" y="0" enable-background="new 0 0 20 20" version="1.1" viewBox="0 0 20 20" xml:space="preserve"><title>Shape</title><desc>Created with Sketch.</desc><g id="Page-1"><g id="Artboard-1" transform="translate(-3.000000, -1.000000)"><path id="Shape" d="M19.7,8.3l-6-6C13.5,2.1,13.3,2,13,2s-0.5,0.1-0.7,0.3l-6,6C6.1,8.5,6,8.7,6,9 c0,0.6,0.5,1,1,1c0.3,0,0.5-0.1,0.7-0.3L12,5.4V19c0,0.5,0.4,1,1,1s1-0.5,1-1V5.4l4.3,4.3C18.5,9.9,18.7,10,19,10c0.5,0,1-0.4,1-1 C20,8.7,19.9,8.5,19.7,8.3L19.7,8.3z"/></g></g></svg>