<svg xmlns="http://www.w3.org/2000/svg" xmlns:xlink="http://www.w3.org/1999/xlink" id="Layer_1" x="0" y="0" enable-background="new 0 0 20 20" version="1.1" viewBox="0 0 20 20" xml:space="preserve"><g id="chat"><g><path fill-rule="evenodd" d="M19,0H7C6.45,0,6,0.45,6,1v10c0,0.55,0.45,1,1,1h5.59l3.71,3.71 C16.47,15.89,16.72,16,17,16c0.55,0,1-0.45,1-1v-3h1c0.55,0,1-0.45,1-1V1C20,0.45,19.55,0,19,0z M7,13c-1.1,0-2-0.9-2-2V4H1 C0.45,4,0,4.45,0,5v10c0,0.55,0.45,1,1,1h1v3c0,0.55,0.45,1,1,1c0.28,0,0.53-0.11,0.71-0.29L7.41,16H13c0.55,0,1-0.45,1-1v-0.17 L12.17,13H7z" clip-rule="evenodd"/></g></g></svg>