<svg xmlns="http://www.w3.org/2000/svg" xmlns:xlink="http://www.w3.org/1999/xlink" id="Layer_1" x="0" y="0" enable-background="new 0 0 20 20" version="1.1" viewBox="0 0 20 20" xml:space="preserve"><path id="compass_1_" fill-rule="evenodd" d="M15,10c0,0.14-0.03,0.28-0.09,0.4l0,0l-3.99,8.98c0,0,0,0,0,0	l-0.01,0.02l0,0C10.76,19.75,10.41,20,10,20s-0.76-0.25-0.91-0.6l0,0l-0.01-0.02c0,0,0,0,0,0l-3.99-8.98l0,0	C5.03,10.28,5,10.14,5,10s0.03-0.28,0.09-0.4l0,0l3.99-8.98c0,0,0,0,0,0l0.01-0.02l0,0C9.24,0.25,9.59,0,10,0s0.76,0.25,0.91,0.6	l0,0l0.01,0.02c0,0,0,0,0,0l3.99,8.98l0,0C14.97,9.72,15,9.86,15,10z M10,3.46L7.09,10h5.81L10,3.46z" clip-rule="evenodd"/></svg>