<svg xmlns="http://www.w3.org/2000/svg" xmlns:xlink="http://www.w3.org/1999/xlink" id="Layer_1" x="0" y="0" enable-background="new 0 0 20 20" version="1.1" viewBox="0 0 20 20" xml:space="preserve"><g id="curved_range_chart_1_"><g><path fill-rule="evenodd" d="M19,16H3.02l2.14-1.74c2.25,1.7,7.33,0.46,11.83-2.99l-1.29-1.5 c-3.56,2.74-7.31,4.03-8.93,3.19l10.55-8.57l-0.63-0.78L6.1,12.21c-0.64-1.64,1.46-4.91,5.09-7.7L9.9,3.01 c-4.6,3.54-6.91,8.12-5.41,10.51L2,15.54V3c0-0.55-0.45-1-1-1S0,2.45,0,3v14c0,0.14,0.03,0.27,0.08,0.39C0.23,17.75,0.59,18,1,18 h18c0.55,0,1-0.45,1-1S19.55,16,19,16z" clip-rule="evenodd"/></g></g></svg>