<svg xmlns="http://www.w3.org/2000/svg" xmlns:xlink="http://www.w3.org/1999/xlink" id="Layer_1" x="0" y="0" enable-background="new 0 0 20 20" version="1.1" viewBox="0 0 20 20" xml:space="preserve"><g id="document_open_1_"><g><path fill-rule="evenodd" d="M8,15c0,0.55,0.45,1,1,1s1-0.45,1-1v-5c0-0.55-0.45-1-1-1H4c-0.55,0-1,0.45-1,1 s0.45,1,1,1h2.59l-5.29,5.29C1.11,16.47,1,16.72,1,17c0,0.55,0.45,1,1,1c0.28,0,0.53-0.11,0.71-0.29L8,12.41V15z M13,0H5 C4.45,0,4,0.45,4,1v6h2V2h6v5h5v11H6v-0.76L4.04,19.2C4.14,19.65,4.52,20,5,20h13c0.55,0,1-0.45,1-1V6L13,0z" clip-rule="evenodd"/></g></g></svg>