<svg xmlns="http://www.w3.org/2000/svg" xmlns:xlink="http://www.w3.org/1999/xlink" id="Layer_1" x="0" y="0" enable-background="new 0 0 20 20" version="1.1" viewBox="0 0 20 20" xml:space="preserve"><g id="double_caret_vertical_1_"><g><path fill-rule="evenodd" d="M5,9h10c0.55,0,1-0.45,1-1c0-0.24-0.1-0.46-0.24-0.63l0.01-0.01l-5-6l-0.01,0.01 C10.57,1.15,10.31,1,10,1S9.43,1.15,9.24,1.37L9.23,1.36l-5,6l0.01,0.01C4.1,7.54,4,7.76,4,8C4,8.55,4.45,9,5,9z M15,11H5 c-0.55,0-1,0.45-1,1c0,0.24,0.1,0.46,0.24,0.63l-0.01,0.01l5,6l0.01-0.01C9.43,18.85,9.69,19,10,19s0.57-0.15,0.76-0.37l0.01,0.01 l5-6l-0.01-0.01C15.9,12.46,16,12.24,16,12C16,11.45,15.55,11,15,11z" clip-rule="evenodd"/></g></g></svg>