<svg xmlns="http://www.w3.org/2000/svg" xmlns:xlink="http://www.w3.org/1999/xlink" id="Layer_1" x="0" y="0" enable-background="new 0 0 20 20" version="1.1" viewBox="0 0 20 20" xml:space="preserve"><g id="downlaod"><g><path fill-rule="evenodd" d="M10,0C4.48,0,0,4.48,0,10c0,5.52,4.48,10,10,10s10-4.48,10-10 C20,4.48,15.52,0,10,0z M14.71,11.71l-4,4C10.53,15.89,10.28,16,10,16s-0.53-0.11-0.71-0.29l-4-4C5.11,11.53,5,11.28,5,11 c0-0.55,0.45-1,1-1c0.28,0,0.53,0.11,0.71,0.29L9,12.59V5c0-0.55,0.45-1,1-1s1,0.45,1,1v7.59l2.29-2.29 C13.47,10.11,13.72,10,14,10c0.55,0,1,0.45,1,1C15,11.28,14.89,11.53,14.71,11.71z" clip-rule="evenodd"/></g></g></svg>