<svg xmlns="http://www.w3.org/2000/svg" xmlns:xlink="http://www.w3.org/1999/xlink" id="Layer_1" x="0" y="0" enable-background="new 0 0 20 20" version="1.1" viewBox="0 0 20 20" xml:space="preserve"><title>Shape</title><desc>Created with Sketch.</desc><g id="Page-1"><g id="Artboard-1"><path id="Shape" d="M17.7,12.7c0-0.1,0-0.2-0.1-0.3h0l-2-7h0c-0.1-0.3-0.3-0.6-0.6-0.7l0,0L1.8,0 L1.2,0.5L7.7,7c0.3-0.2,0.6-0.3,1-0.3c1.1,0,2,0.9,2,2s-0.9,2-2,2s-2-0.9-2-2c0-0.4,0.1-0.7,0.3-1L0.5,1.2L0,1.8L4.7,15 c0.1,0.3,0.4,0.5,0.7,0.6v0l7,2v0c0.1,0,0.2,0.1,0.3,0.1c0.3,0,0.5-0.1,0.7-0.3l4-4C17.6,13.2,17.7,12.9,17.7,12.7L17.7,12.7z M18.7,13.7c-0.3,0-0.5,0.1-0.7,0.3l-4,4c-0.2,0.2-0.3,0.4-0.3,0.7c0,0.5,0.4,1,1,1c0.3,0,0.5-0.1,0.7-0.3l4-4 c0.2-0.2,0.3-0.4,0.3-0.7C19.7,14.1,19.2,13.7,18.7,13.7L18.7,13.7z"/></g></g></svg>