<svg xmlns="http://www.w3.org/2000/svg" xmlns:xlink="http://www.w3.org/1999/xlink" id="Rounded_Rectangle_2_1_" x="0" y="0" enable-background="new 0 0 20 20" version="1.1" viewBox="0 0 20 20" xml:space="preserve"><g id="Rounded_Rectangle_2"><g><path fill-rule="evenodd" d="M15,4H1C0.45,4,0,4.45,0,5v14c0,0.55,0.45,1,1,1h14c0.55,0,1-0.45,1-1V5 C16,4.45,15.55,4,15,4z M14,18H2V6h12V18z M19,0H5C4.45,0,4,0.45,4,1v2h2V2h12v12h-1v2h2c0.55,0,1-0.45,1-1V1 C20,0.45,19.55,0,19,0z" clip-rule="evenodd"/></g></g></svg>