<svg xmlns="http://www.w3.org/2000/svg" xmlns:xlink="http://www.w3.org/1999/xlink" id="Layer_1" x="0" y="0" enable-background="new 0 0 20 20" version="1.1" viewBox="0 0 20 20" xml:space="preserve"><g id="floppy_disk_1_"><g><path fill-rule="evenodd" d="M14,1h-3v5h3V1z M19.71,3.29l-3-3C16.53,0.11,16.28,0,16,0h-1v7H5V0H1 C0.45,0,0,0.45,0,1v18c0,0.55,0.45,1,1,1h18c0.55,0,1-0.45,1-1V4C20,3.72,19.89,3.47,19.71,3.29z M17,19H3v-8c0-0.55,0.45-1,1-1 h12c0.55,0,1,0.45,1,1V19z" clip-rule="evenodd"/></g></g></svg>