<svg xmlns="http://www.w3.org/2000/svg" xmlns:xlink="http://www.w3.org/1999/xlink" id="Layer_1" x="0" y="0" enable-background="new 0 0 20 20" version="1.1" viewBox="0 0 20 20" xml:space="preserve"><title>Shape</title><desc>Created with Sketch.</desc><g id="Page-1"><g id="Artboard-1"><path id="Shape" d="M17,10h-3v3h3V10L17,10z M17,14h-3v3h3V14L17,14z M17,6h-3v3h3V6L17,6z M19,0H1 C0.4,0,0,0.4,0,1v18c0,0.5,0.4,1,1,1h18c0.5,0,1-0.5,1-1V1C20,0.4,19.5,0,19,0L19,0z M18,18H2V2h16V18L18,18z M9,14H6v3h3V14L9,14 z M13,14h-3v3h3V14L13,14z"/></g></g></svg>