<svg xmlns="http://www.w3.org/2000/svg" xmlns:xlink="http://www.w3.org/1999/xlink" id="Layer_1" x="0" y="0" enable-background="new 0 0 20 20" version="1.1" viewBox="0 0 20 20" xml:space="preserve"><title>Shape</title><desc>Created with Sketch.</desc><g id="Page-1"><g id="Artboard-1"><path id="Shape" d="M19,0H1C0.4,0,0,0.4,0,1v18c0,0.5,0.4,1,1,1h18c0.5,0,1-0.5,1-1V1 C20,0.4,19.5,0,19,0L19,0z M18,18H2V2h16V18L18,18z M5,11h4v4c0,0.6,0.4,1,1,1s1-0.4,1-1v-4h4c0.6,0,1-0.4,1-1s-0.4-1-1-1h-4V5 c0-0.6-0.4-1-1-1S9,4.4,9,5v4H5c-0.6,0-1,0.4-1,1S4.4,11,5,11L5,11z"/></g></g></svg>