<svg xmlns="http://www.w3.org/2000/svg" xmlns:xlink="http://www.w3.org/1999/xlink" id="Layer_1" x="0" y="0" enable-background="new 0 0 20 20" version="1.1" viewBox="0 0 20 20" xml:space="preserve"><title>Artboard 2</title><desc>Created with Sketch.</desc><g id="Control"><g id="Artboard-2"><path id="Combined-Shape" d="M11.7,4H14c0.6,0,1-0.4,1-1c0-0.6-0.4-1-1-1H7C6.4,2,6,2.4,6,3c0,0.6,0.4,1,1,1h2.2L7.3,15H5 c-0.6,0-1,0.4-1,1c0,0.6,0.4,1,1,1h7c0.6,0,1-0.4,1-1c0-0.6-0.4-1-1-1H9.8L11.7,4z"/></g></g></svg>