<svg xmlns="http://www.w3.org/2000/svg" xmlns:xlink="http://www.w3.org/1999/xlink" id="Layer_1" x="0" y="0" enable-background="new 0 0 20 20" version="1.1" viewBox="0 0 20 20" xml:space="preserve"><g id="join_table_1_"><g><path fill-rule="evenodd" d="M19,6h-4V2c0-0.55-0.45-1-1-1H1C0.45,1,0,1.45,0,2v11c0,0.55,0.45,1,1,1h4v4 c0,0.55,0.45,1,1,1h13c0.55,0,1-0.45,1-1V7C20,6.45,19.55,6,19,6z M6,12H2V9h4V12z M6,8H2V5h4V8z M13,17H7v-3h6V17z M13,13H7V9h6 V13z M13,8H7V5h6V8z M18,17h-4v-3h4V17z M18,13h-4v-3h4V13z" clip-rule="evenodd"/></g></g></svg>