<svg xmlns="http://www.w3.org/2000/svg" xmlns:xlink="http://www.w3.org/1999/xlink" id="Layer_1" x="0" y="0" enable-background="new 0 0 20 20" version="1.1" viewBox="0 0 20 20" xml:space="preserve"><g id="delete_6_"><g><path fill-rule="evenodd" d="M19.71,9.29l-6-6C13.53,3.11,13.28,3,13,3H1C0.45,3,0,3.45,0,4v12 c0,0.55,0.45,1,1,1h12c0.28,0,0.53-0.11,0.71-0.29l6-6C19.89,10.53,20,10.28,20,10C20,9.72,19.89,9.47,19.71,9.29z M10.71,12.29 C10.89,12.47,11,12.72,11,13c0,0.55-0.45,1-1,1c-0.28,0-0.53-0.11-0.71-0.29L7,11.41l-2.29,2.29C4.53,13.89,4.28,14,4,14 c-0.55,0-1-0.45-1-1c0-0.28,0.11-0.53,0.29-0.71L5.59,10L3.29,7.71C3.11,7.53,3,7.28,3,7c0-0.55,0.45-1,1-1 c0.28,0,0.53,0.11,0.71,0.29L7,8.59l2.29-2.29C9.47,6.11,9.72,6,10,6c0.55,0,1,0.45,1,1c0,0.28-0.11,0.53-0.29,0.71L8.41,10 L10.71,12.29z" clip-rule="evenodd"/></g></g></svg>