<svg xmlns="http://www.w3.org/2000/svg" xmlns:xlink="http://www.w3.org/1999/xlink" id="Layer_1" x="0" y="0" enable-background="new 0 0 20 20" version="1.1" viewBox="0 0 20 20" xml:space="preserve"><g id="key_shift_1_"><g><path fill-rule="evenodd" d="M17.74,10.35L17.74,10.35l-6.99-8.01l-0.01,0.01C10.56,2.14,10.3,2,10,2 S9.44,2.14,9.26,2.35L9.25,2.34l-7,8l0.01,0.01C2.1,10.52,2,10.75,2,11c0,0.55,0.45,1,1,1h3v5c0,0.55,0.45,1,1,1h6 c0.55,0,1-0.45,1-1v-5h3c0.55,0,1-0.45,1-1C18,10.75,17.9,10.52,17.74,10.35z" clip-rule="evenodd"/></g></g></svg>