<svg xmlns="http://www.w3.org/2000/svg" xmlns:xlink="http://www.w3.org/1999/xlink" id="Layer_1" x="0" y="0" enable-background="new 0 0 20 20" version="1.1" viewBox="0 0 20 20" xml:space="preserve"><g id="key_enter_1_"><g><path fill-rule="evenodd" d="M18,2c-0.55,0-1,0.45-1,1v5c0,2.21-1.79,4-4,4H4.41l2.29-2.29 C6.89,9.53,7,9.28,7,9c0-0.55-0.45-1-1-1C5.72,8,5.47,8.11,5.29,8.29l-4,4C1.11,12.47,1,12.72,1,13c0,0.28,0.11,0.53,0.29,0.71 l4,4C5.47,17.89,5.72,18,6,18c0.55,0,1-0.45,1-1c0-0.28-0.11-0.53-0.29-0.71L4.41,14H13c3.31,0,6-2.69,6-6V3C19,2.45,18.55,2,18,2 z" clip-rule="evenodd"/></g></g></svg>