<svg xmlns="http://www.w3.org/2000/svg" xmlns:xlink="http://www.w3.org/1999/xlink" id="Layer_1" x="0" y="0" enable-background="new 0 0 20 20" version="1.1" viewBox="0 0 20 20" xml:space="preserve"><g id="key_escape_3_"><g><path fill-rule="evenodd" d="M2,8c0.55,0,1-0.45,1-1V4.41l6.29,6.29C9.47,10.89,9.72,11,10,11 c0.55,0,1-0.45,1-1c0-0.28-0.11-0.53-0.29-0.71L4.41,3H7c0.55,0,1-0.45,1-1c0-0.55-0.45-1-1-1H2C1.45,1,1,1.45,1,2v5 C1,7.55,1.45,8,2,8z M11,1.06V3.1c3.39,0.49,6,3.38,6,6.9c0,3.87-3.13,7-7,7c-3.52,0-6.41-2.61-6.9-6H1.06c0.5,4.5,4.31,8,8.94,8 c4.97,0,9-4.03,9-9C19,5.37,15.5,1.56,11,1.06z" clip-rule="evenodd"/></g></g></svg>