<svg xmlns="http://www.w3.org/2000/svg" xmlns:xlink="http://www.w3.org/1999/xlink" id="Layer_1" x="0" y="0" enable-background="new 0 0 20 20" version="1.1" viewBox="0 0 20 20" xml:space="preserve"><g id="Rounded_Rectangle_2_copy_2"><g><path fill-rule="evenodd" d="M19,3H7C6.45,3,6,3.45,6,4v1h12v6h1c0.55,0,1-0.45,1-1V4C20,3.45,19.55,3,19,3z M13,9H1c-0.55,0-1,0.45-1,1v6c0,0.55,0.45,1,1,1h12c0.55,0,1-0.45,1-1v-6C14,9.45,13.55,9,13,9z M12,15H2v-4h10V15z M16,6H4 C3.45,6,3,6.45,3,7v1h12v6h1c0.55,0,1-0.45,1-1V7C17,6.45,16.55,6,16,6z" clip-rule="evenodd"/></g></g></svg>