<svg xmlns="http://www.w3.org/2000/svg" xmlns:xlink="http://www.w3.org/1999/xlink" id="Layer_1" x="0" y="0" enable-background="new 0 0 20 20" version="1.1" viewBox="0 0 20 20" xml:space="preserve"><g id="ninja_1_"><g><path fill-rule="evenodd" d="M20,6c0,0-2.98,2.43-6.12,2.19C13.52,5.31,12.05,0,6,0c0,0,2.41,2.99,2.16,6.12 C5.27,6.49,0,7.97,0,14c0,0,2.98-2.43,6.11-2.19C6.47,14.69,7.94,20,14,20c0,0-2.42-2.99-2.16-6.13C14.73,13.51,20,12.02,20,6z M10,12c-1.1,0-2-0.9-2-2c0-1.1,0.9-2,2-2s2,0.9,2,2C12,11.1,11.1,12,10,12z" clip-rule="evenodd"/></g></g></svg>