<svg xmlns="http://www.w3.org/2000/svg" xmlns:xlink="http://www.w3.org/1999/xlink" id="Layer_1" x="0" y="0" enable-background="new 0 0 20 20" version="1.1" viewBox="0 0 20 20" xml:space="preserve"><g id="print"><g><path fill-rule="evenodd" d="M14,16H6v-4H4v5c0,0.55,0.45,1,1,1h10c0.55,0,1-0.45,1-1v-5h-2V16z M16,3 c0-0.55-0.45-1-1-1H5C4.45,2,4,2.45,4,3v1h12V3z M19,5H1C0.45,5,0,5.45,0,6v7c0,0.55,0.45,1,1,1h2v-3h14v3h2c0.55,0,1-0.45,1-1V6 C20,5.45,19.55,5,19,5z M18,9h-2V7h2V9z" clip-rule="evenodd"/></g></g></svg>