<svg xmlns="http://www.w3.org/2000/svg" xmlns:xlink="http://www.w3.org/1999/xlink" id="Layer_1" x="0" y="0" enable-background="new 0 0 20 20" version="1.1" viewBox="0 0 20 20" xml:space="preserve"><g id="remove_column_bottom_1_"><g><path fill-rule="evenodd" d="M7,14h6c0.55,0,1-0.45,1-1c0-0.55-0.45-1-1-1H7c-0.55,0-1,0.45-1,1 C6,13.55,6.45,14,7,14z M19,0H1C0.45,0,0,0.45,0,1v18c0,0.55,0.45,1,1,1h18c0.55,0,1-0.45,1-1V1C20,0.45,19.55,0,19,0z M18,18H2V8 h16V18z M18,7H2V2h16V7z" clip-rule="evenodd"/></g></g></svg>