<svg xmlns="http://www.w3.org/2000/svg" xmlns:xlink="http://www.w3.org/1999/xlink" id="Layer_1" x="0" y="0" enable-background="new 0 0 20 20" version="1.1" viewBox="0 0 20 20" xml:space="preserve"><g id="remove_1_"><g><path fill-rule="evenodd" d="M10,0C4.48,0,0,4.48,0,10c0,5.52,4.48,10,10,10s10-4.48,10-10 C20,4.48,15.52,0,10,0z M10,18c-4.42,0-8-3.58-8-8s3.58-8,8-8s8,3.58,8,8S14.42,18,10,18z M15,9H5c-0.55,0-1,0.45-1,1 c0,0.55,0.45,1,1,1h10c0.55,0,1-0.45,1-1C16,9.45,15.55,9,15,9z" clip-rule="evenodd"/></g></g></svg>