<svg xmlns="http://www.w3.org/2000/svg" xmlns:xlink="http://www.w3.org/1999/xlink" id="Layer_1" x="0" y="0" enable-background="new 0 0 20 20" version="1.1" viewBox="0 0 20 20" xml:space="preserve"><g id="small_cross_mark"><g><path fill-rule="evenodd" d="M11.41,10l3.29-3.29C14.89,6.53,15,6.28,15,6c0-0.55-0.45-1-1-1 c-0.28,0-0.53,0.11-0.71,0.29L10,8.59L6.71,5.29C6.53,5.11,6.28,5,6,5C5.45,5,5,5.45,5,6c0,0.28,0.11,0.53,0.29,0.71L8.59,10 l-3.29,3.29C5.11,13.47,5,13.72,5,14c0,0.55,0.45,1,1,1c0.28,0,0.53-0.11,0.71-0.29L10,11.41l3.29,3.29 C13.47,14.89,13.72,15,14,15c0.55,0,1-0.45,1-1c0-0.28-0.11-0.53-0.29-0.71L11.41,10z" clip-rule="evenodd"/></g></g></svg>