<svg xmlns="http://www.w3.org/2000/svg" xmlns:xlink="http://www.w3.org/1999/xlink" id="Layer_1" x="0" y="0" enable-background="new 0 0 20 20" version="1.1" viewBox="0 0 20 20" xml:space="preserve"><g id="step_backward_1_"><g><path fill-rule="evenodd" d="M15,3c-0.23,0-0.42,0.09-0.59,0.21L14.4,3.2L8,8V4c0-0.55-0.45-1-1-1H5 C4.45,3,4,3.45,4,4v12c0,0.55,0.45,1,1,1h2c0.55,0,1-0.45,1-1v-4l6.4,4.8l0.01-0.01C14.58,16.91,14.77,17,15,17c0.55,0,1-0.45,1-1 V4C16,3.45,15.55,3,15,3z" clip-rule="evenodd"/></g></g></svg>