<svg xmlns="http://www.w3.org/2000/svg" xmlns:xlink="http://www.w3.org/1999/xlink" id="Layer_1" x="0" y="0" enable-background="new 0 0 20 20" version="1.1" viewBox="0 0 20 20" xml:space="preserve"><g id="step_chart"><g><path fill-rule="evenodd" d="M19,16H2v-3h4c0.55,0,1-0.45,1-1V8h3v2c0,0.55,0.45,1,1,1h5c0.55,0,1-0.45,1-1V6 h2c0.55,0,1-0.45,1-1c0-0.55-0.45-1-1-1h-3c-0.55,0-1,0.45-1,1v4h-3V7c0-0.55-0.45-1-1-1H6C5.45,6,5,6.45,5,7v4H2V3 c0-0.55-0.45-1-1-1S0,2.45,0,3v14c0,0.55,0.45,1,1,1h18c0.55,0,1-0.45,1-1C20,16.45,19.55,16,19,16z" clip-rule="evenodd"/></g></g></svg>