<svg xmlns="http://www.w3.org/2000/svg" xmlns:xlink="http://www.w3.org/1999/xlink" id="Layer_1" x="0" y="0" enable-background="new 0 0 20 20" version="1.1" viewBox="0 0 20 20" xml:space="preserve"><g id="symbol_diamond_3_"><g><path fill-rule="evenodd" d="M15,10.01c0-0.21-0.08-0.39-0.18-0.54l0.02-0.01l-4-6l-0.02,0.01 C10.64,3.19,10.35,3.01,10,3.01S9.36,3.19,9.18,3.46L9.17,3.45l-4,6l0.02,0.01C5.08,9.62,5,9.8,5,10.01s0.08,0.39,0.18,0.54 l-0.02,0.01l4,6l0.02-0.01c0.18,0.27,0.47,0.46,0.82,0.46s0.64-0.19,0.82-0.46l0.02,0.01l4-6l-0.02-0.01 C14.92,10.39,15,10.21,15,10.01z" clip-rule="evenodd"/></g></g></svg>