<svg xmlns="http://www.w3.org/2000/svg" xmlns:xlink="http://www.w3.org/1999/xlink" id="Layer_1" x="0" y="0" enable-background="new 0 0 20 20" version="1.1" viewBox="0 0 20 20" xml:space="preserve"><title>Shape</title><desc>Created with Sketch.</desc><g id="Page-1"><g id="Artboard-1" transform="translate(0.000000, -1.000000)"><path id="Shape" d="M19,2H1C0.4,2,0,2.5,0,3v16c0,0.5,0.4,1,1,1h18c0.5,0,1-0.5,1-1V3 C20,2.5,19.5,2,19,2L19,2z M7,18H2v-3h5V18L7,18z M7,14H2v-3h5V14L7,14z M7,10H2V7h5V10L7,10z M18,18H8v-3h10V18L18,18z M18,14H8 v-3h10V14L18,14z M18,10H8V7h10V10L18,10z"/></g></g></svg>