<svg xmlns="http://www.w3.org/2000/svg" xmlns:xlink="http://www.w3.org/1999/xlink" id="Layer_1" x="0" y="0" enable-background="new 0 0 20 20" version="1.1" viewBox="0 0 20 20" xml:space="preserve"><g id="tick_circle_2_"><path id="Combined-Shape_5_" d="M10,20C4.48,20,0,15.52,0,10S4.48,0,10,0s10,4.48,10,10S15.52,20,10,20z M15,6 c-0.28,0-0.53,0.11-0.71,0.29L8,12.59l-2.29-2.3C5.53,10.11,5.28,10,5,10c-0.55,0-1,0.45-1,1c0,0.28,0.11,0.53,0.29,0.71l3,3 C7.47,14.89,7.72,15,8,15c0.28,0,0.53-0.11,0.71-0.29l7-7C15.89,7.53,16,7.28,16,7C16,6.45,15.55,6,15,6z"/></g></svg>