<svg xmlns="http://www.w3.org/2000/svg" xmlns:xlink="http://www.w3.org/1999/xlink" id="Rounded_Rectangle_4_1_" x="0" y="0" enable-background="new 0 0 20 20" version="1.1" viewBox="0 0 20 20" xml:space="preserve"><g id="Rounded_Rectangle_4"><g><path fill-rule="evenodd" d="M19,17H1c-0.55,0-1,0.45-1,1c0,0.55,0.45,1,1,1h18c0.55,0,1-0.45,1-1 C20,17.45,19.55,17,19,17z M9,16h2c0.55,0,1-0.45,1-1V2c0-0.55-0.45-1-1-1H9C8.45,1,8,1.45,8,2v13C8,15.55,8.45,16,9,16z M15,16h2 c0.55,0,1-0.45,1-1V6c0-0.55-0.45-1-1-1h-2c-0.55,0-1,0.45-1,1v9C14,15.55,14.45,16,15,16z M3,16h2c0.55,0,1-0.45,1-1V9 c0-0.55-0.45-1-1-1H3C2.45,8,2,8.45,2,9v6C2,15.55,2.45,16,3,16z" clip-rule="evenodd"/></g></g></svg>