<svg xmlns="http://www.w3.org/2000/svg" xmlns:xlink="http://www.w3.org/1999/xlink" id="Layer_1" x="0" y="0" enable-background="new 0 0 20 20" version="1.1" viewBox="0 0 20 20" xml:space="preserve"><g id="torch_1_"><g><path fill-rule="evenodd" d="M6.97,19c0,0.55,0.45,1,1,1h4c0.55,0,1-0.45,1-1v-2h-6V19z M3.97,4l3,4v8h6V8 l3-4c0,0-10.07,0-11.76,0C4.05,4,3.97,4,3.97,4z M8.97,9c0-0.55,0.45-1,1-1s1,0.45,1,1v2c0,0.55-0.45,1-1,1s-1-0.45-1-1V9z M14.97,0h-10c-0.55,0-1,0.45-1,1v2h12V1C15.97,0.45,15.52,0,14.97,0z" clip-rule="evenodd"/></g></g></svg>