<svg xmlns="http://www.w3.org/2000/svg" xmlns:xlink="http://www.w3.org/1999/xlink" id="Shape_1_1_" x="0" y="0" enable-background="new 0 0 20 20" version="1.1" viewBox="0 0 20 20" xml:space="preserve"><g id="Shape_1"><g><path fill-rule="evenodd" d="M8,7H7C6.45,7,6,7.45,6,8v11c0,0.55,0.45,1,1,1h1c0.55,0,1-0.45,1-1V8 C9,7.45,8.55,7,8,7z M3,9H2c-0.55,0-1,0.45-1,1v9c0,0.55,0.45,1,1,1h1c0.55,0,1-0.45,1-1v-9C4,9.45,3.55,9,3,9z M13,4h-1 c-0.55,0-1,0.45-1,1v14c0,0.55,0.45,1,1,1h1c0.55,0,1-0.45,1-1V5C14,4.45,13.55,4,13,4z M18,0h-1c-0.55,0-1,0.45-1,1v18 c0,0.55,0.45,1,1,1h1c0.55,0,1-0.45,1-1V1C19,0.45,18.55,0,18,0z" clip-rule="evenodd"/></g></g></svg>