<svg xmlns="http://www.w3.org/2000/svg" xmlns:xlink="http://www.w3.org/1999/xlink" id="Layer_1" x="0" y="0" enable-background="new 0 0 20 20" version="1.1" viewBox="0 0 20 20" xml:space="preserve"><g id="vertical_distribution_1_"><g><path fill-rule="evenodd" d="M1,2h18c0.55,0,1-0.45,1-1s-0.45-1-1-1H1C0.45,0,0,0.45,0,1S0.45,2,1,2z M3,7 C2.45,7,2,7.45,2,8v4c0,0.55,0.45,1,1,1h14c0.55,0,1-0.45,1-1V8c0-0.55-0.45-1-1-1H3z M19,18H1c-0.55,0-1,0.45-1,1s0.45,1,1,1h18 c0.55,0,1-0.45,1-1S19.55,18,19,18z" clip-rule="evenodd"/></g></g></svg>