<svg xmlns="http://www.w3.org/2000/svg" xmlns:xlink="http://www.w3.org/1999/xlink" id="Layer_1" x="0" y="0" enable-background="new 0 0 20 20" version="1.1" viewBox="0 0 20 20" xml:space="preserve"><g id="warning_2_"><g><path fill-rule="evenodd" d="M19.86,17.52c0,0,0.01-0.01,0.01-0.01l-9-16c0,0-0.01,0.01-0.01,0.01 C10.69,1.21,10.37,1,10,1S9.31,1.21,9.14,1.52L9.13,1.51l-9,16l0.01,0.01C0.06,17.66,0,17.82,0,18c0,0.55,0.45,1,1,1h18 c0.55,0,1-0.45,1-1C20,17.82,19.94,17.66,19.86,17.52z M11,17H9v-2h2V17z M11,14H9V6h2V14z" clip-rule="evenodd"/></g></g></svg>