<svg xmlns="http://www.w3.org/2000/svg" xmlns:xlink="http://www.w3.org/1999/xlink" id="Layer_1" x="0" y="0" enable-background="new 0 0 16 16" version="1.1" viewBox="0 0 16 16" xml:space="preserve"><g id="add_to_artifact_1_"><g><path fill-rule="evenodd" d="M14,4.01h-1v-1c0-0.55-0.45-1-1-1s-1,0.45-1,1v1h-1c-0.55,0-1,0.45-1,1 c0,0.55,0.45,1,1,1h1v1c0,0.55,0.45,1,1,1s1-0.45,1-1v-1h1c0.55,0,1-0.45,1-1C15,4.45,14.55,4.01,14,4.01z M1,6.01h6 c0.55,0,1-0.45,1-1c0-0.55-0.45-1-1-1H1c-0.55,0-1,0.45-1,1C0,5.56,0.45,6.01,1,6.01z M9,12.01H1c-0.55,0-1,0.45-1,1 c0,0.55,0.45,1,1,1h8c0.55,0,1-0.45,1-1C10,12.45,9.55,12.01,9,12.01z M9,8.01H1c-0.55,0-1,0.45-1,1c0,0.55,0.45,1,1,1h8 c0.55,0,1-0.45,1-1C10,8.45,9.55,8.01,9,8.01z" clip-rule="evenodd"/></g></g></svg>