<svg xmlns="http://www.w3.org/2000/svg" xmlns:xlink="http://www.w3.org/1999/xlink" id="Layer_1" x="0" y="0" enable-background="new 0 0 16 16" version="1.1" viewBox="0 0 16 16" xml:space="preserve"><g id="add_column_top_1_"><g><path fill-rule="evenodd" d="M15,0H1C0.45,0,0,0.45,0,1v14c0,0.55,0.45,1,1,1h14c0.55,0,1-0.45,1-1V1 C16,0.45,15.55,0,15,0z M14,14H2v-3h12V14z M14,10H2V2h12V10z M6,7h1v1c0,0.55,0.45,1,1,1s1-0.45,1-1V7h1c0.55,0,1-0.45,1-1 c0-0.55-0.45-1-1-1H9V4c0-0.55-0.45-1-1-1S7,3.45,7,4v1H6C5.45,5,5,5.45,5,6C5,6.55,5.45,7,6,7z" clip-rule="evenodd"/></g></g></svg>