<svg xmlns="http://www.w3.org/2000/svg" xmlns:xlink="http://www.w3.org/1999/xlink" id="Layer_1" x="0" y="0" enable-background="new 0 0 16 16" version="1.1" viewBox="0 0 16 16" xml:space="preserve"><g id="add_column_right_1_"><g><path fill-rule="evenodd" d="M8,9h1v1c0,0.55,0.45,1,1,1s1-0.45,1-1V9h1c0.55,0,1-0.45,1-1c0-0.55-0.45-1-1-1 h-1V6c0-0.55-0.45-1-1-1S9,5.45,9,6v1H8C7.45,7,7,7.45,7,8C7,8.55,7.45,9,8,9z M15,0H1C0.45,0,0,0.45,0,1v14c0,0.55,0.45,1,1,1h14 c0.55,0,1-0.45,1-1V1C16,0.45,15.55,0,15,0z M5,14H2V2h3V14z M14,14H6V2h8V14z" clip-rule="evenodd"/></g></g></svg>