<svg xmlns="http://www.w3.org/2000/svg" xmlns:xlink="http://www.w3.org/1999/xlink" id="Layer_1" x="0" y="0" enable-background="new 0 0 16 16" version="1.1" viewBox="0 0 16 16" xml:space="preserve"><g id="Shape_1_26_"><g><path fill-rule="evenodd" d="M15.52,2.77C15.82,2.48,16,2.07,16,1.62C16,0.73,15.27,0,14.38,0 c-0.45,0-0.85,0.18-1.15,0.48l-1.34,1.34l2.3,2.3L15.52,2.77z M7.4,10.9l6.21-6.21l-2.3-2.3L5.1,8.6L7.4,10.9z M14,14H2V2h6.34 l2-2H1C0.45,0,0,0.45,0,1v14c0,0.55,0.45,1,1,1h14c0.55,0,1-0.45,1-1V5.66l-2,2V14z M3,13l3.58-1.29L4.29,9.44L3,13z" clip-rule="evenodd"/></g></g></svg>