<svg xmlns="http://www.w3.org/2000/svg" xmlns:xlink="http://www.w3.org/1999/xlink" id="Layer_1" x="0" y="0" enable-background="new 0 0 16 16" version="1.1" viewBox="0 0 16 16" xml:space="preserve"><g id="briefcase_2_"><g><path fill-rule="evenodd" d="M15,3.98h-3v-2c0-0.55-0.45-1-1-1H5c-0.55,0-1,0.45-1,1v2H1c-0.55,0-1,0.45-1,1 v4h3v-1h2v1h6v-1h2v1h3v-4C16,4.43,15.55,3.98,15,3.98z M10,3.98H6v-1h4V3.98z M13,10.98h-2v-1H5v1H3v-1H0v4c0,0.55,0.45,1,1,1h14 c0.55,0,1-0.45,1-1v-4h-3V10.98z" clip-rule="evenodd"/></g></g></svg>