<svg xmlns="http://www.w3.org/2000/svg" xmlns:xlink="http://www.w3.org/1999/xlink" id="Layer_1" x="0" y="0" enable-background="new 0 0 16 16" version="1.1" viewBox="0 0 16 16" xml:space="preserve"><g id="Rounded_Rectangle_1_29_"><g><path fill-rule="evenodd" d="M10,3C9.45,3,9,3.45,9,4v2.59L5.71,3.29C5.53,3.11,5.28,3,5,3C4.45,3,4,3.45,4,4 c0,0.28,0.11,0.53,0.29,0.71L7.59,8l-3.29,3.29C4.11,11.47,4,11.72,4,12c0,0.55,0.45,1,1,1c0.28,0,0.53-0.11,0.71-0.29L9,9.41V12 c0,0.55,0.45,1,1,1s1-0.45,1-1V4C11,3.45,10.55,3,10,3z" clip-rule="evenodd"/></g></g></svg>