<svg xmlns="http://www.w3.org/2000/svg" xmlns:xlink="http://www.w3.org/1999/xlink" id="Layer_1" x="0" y="0" enable-background="new 0 0 16 16" version="1.1" viewBox="0 0 16 16" xml:space="preserve"><g id="comparison_1_"><g><path fill-rule="evenodd" d="M7.99-0.01c-0.55,0-1,0.45-1,1v14c0,0.55,0.45,1,1,1s1-0.45,1-1v-14 C8.99,0.44,8.54-0.01,7.99-0.01z M4.99,2.99h-4c-0.55,0-1,0.45-1,1v2c0,0.55,0.45,1,1,1h4c0.55,0,1-0.45,1-1v-2 C5.99,3.44,5.54,2.99,4.99,2.99z M14.99,2.99h-4c-0.55,0-1,0.45-1,1v2c0,0.55,0.45,1,1,1h4c0.55,0,1-0.45,1-1v-2 C15.99,3.44,15.54,2.99,14.99,2.99z M14.99,5.99h-4v-2h4V5.99z M14.99,8.99h-4c-0.55,0-1,0.45-1,1v2c0,0.55,0.45,1,1,1h4 c0.55,0,1-0.45,1-1v-2C15.99,9.44,15.54,8.99,14.99,8.99z M14.99,11.99h-4v-2h4V11.99z M4.99,8.99h-4c-0.55,0-1,0.45-1,1v2 c0,0.55,0.45,1,1,1h4c0.55,0,1-0.45,1-1v-2C5.99,9.44,5.54,8.99,4.99,8.99z" clip-rule="evenodd"/></g></g></svg>