<svg xmlns="http://www.w3.org/2000/svg" xmlns:xlink="http://www.w3.org/1999/xlink" id="Layer_1" x="0" y="0" enable-background="new 0 0 16 16" version="1.1" viewBox="0 0 16 16" xml:space="preserve"><g id="disable_1_"><g><path fill-rule="evenodd" d="M7.99-0.01c-4.42,0-8,3.58-8,8s3.58,8,8,8s8-3.58,8-8S12.41-0.01,7.99-0.01z M1.99,7.99c0-3.31,2.69-6,6-6c1.3,0,2.49,0.42,3.47,1.12l-8.35,8.35C2.41,10.48,1.99,9.29,1.99,7.99z M7.99,13.99 c-1.3,0-2.49-0.42-3.47-1.12l8.35-8.35c0.7,0.98,1.12,2.17,1.12,3.47C13.99,11.31,11.31,13.99,7.99,13.99z" clip-rule="evenodd"/></g></g></svg>