<svg xmlns="http://www.w3.org/2000/svg" xmlns:xlink="http://www.w3.org/1999/xlink" id="Layer_1" x="0" y="0" enable-background="new 0 0 16 16" version="1.1" viewBox="0 0 16 16" xml:space="preserve"><g id="double_chevron_down"><g><path fill-rule="evenodd" d="M7.29,8.71C7.47,8.89,7.72,9,8,9s0.53-0.11,0.71-0.29l4-4 C12.89,4.53,13,4.28,13,4c0-0.55-0.45-1-1-1c-0.28,0-0.53,0.11-0.71,0.29L8,6.59L4.71,3.29C4.53,3.11,4.28,3,4,3 C3.45,3,3,3.45,3,4c0,0.28,0.11,0.53,0.29,0.71L7.29,8.71z M12,8c-0.28,0-0.53,0.11-0.71,0.29L8,11.59L4.71,8.29 C4.53,8.11,4.28,8,4,8C3.45,8,3,8.45,3,9c0,0.28,0.11,0.53,0.29,0.71l4,4C7.47,13.89,7.72,14,8,14s0.53-0.11,0.71-0.29l4-4 C12.89,9.53,13,9.28,13,9C13,8.45,12.55,8,12,8z" clip-rule="evenodd"/></g></g></svg>