<svg xmlns="http://www.w3.org/2000/svg" xmlns:xlink="http://www.w3.org/1999/xlink" id="Layer_1" x="0" y="0" enable-background="new 0 0 16 16" version="1.1" viewBox="0 0 16 16" xml:space="preserve"><g id="drag_handle_horizontal"><g><path fill-rule="evenodd" d="M2,9c-0.55,0-1,0.45-1,1c0,0.55,0.45,1,1,1s1-0.45,1-1C3,9.45,2.55,9,2,9z M2,5 C1.45,5,1,5.45,1,6c0,0.55,0.45,1,1,1s1-0.45,1-1C3,5.45,2.55,5,2,5z M6,9c-0.55,0-1,0.45-1,1c0,0.55,0.45,1,1,1s1-0.45,1-1 C7,9.45,6.55,9,6,9z M14,7c0.55,0,1-0.45,1-1c0-0.55-0.45-1-1-1s-1,0.45-1,1C13,6.55,13.45,7,14,7z M14,9c-0.55,0-1,0.45-1,1 c0,0.55,0.45,1,1,1s1-0.45,1-1C15,9.45,14.55,9,14,9z M10,5C9.45,5,9,5.45,9,6c0,0.55,0.45,1,1,1s1-0.45,1-1C11,5.45,10.55,5,10,5 z M10,9c-0.55,0-1,0.45-1,1c0,0.55,0.45,1,1,1s1-0.45,1-1C11,9.45,10.55,9,10,9z M6,5C5.45,5,5,5.45,5,6c0,0.55,0.45,1,1,1 s1-0.45,1-1C7,5.45,6.55,5,6,5z" clip-rule="evenodd"/></g></g></svg>