<svg xmlns="http://www.w3.org/2000/svg" xmlns:xlink="http://www.w3.org/1999/xlink" width="16" height="16" version="1.1" viewBox="0 0 16 16"><title>equals</title><desc>Created with Sketch.</desc><g id="equals" fill="none" fill-rule="evenodd" stroke="none" stroke-width="1"><g id="Combined-Shape" fill="#000" fill-rule="nonzero"><path d="M1,0 L11,0 C11.5522847,0 12,0.44771525 12,1 C12,1.55228475 11.5522847,2 11,2 L1,2 C0.44771525,2 0,1.55228475 0,1 C0,0.44771525 0.44771525,0 1,0 Z M1,4 L11,4 C11.5522847,4 12,4.44771525 12,5 C12,5.5522847 11.5522847,6 11,6 L1,6 C0.44771525,6 0,5.5522847 0,5 C0,4.44771525 0.44771525,4 1,4 Z" transform="translate(2.000000, 5.000000)"/></g></g></svg>