<svg xmlns="http://www.w3.org/2000/svg" xmlns:xlink="http://www.w3.org/1999/xlink" id="Layer_1" x="0" y="0" enable-background="new 0 0 16 16" version="1.1" viewBox="0 0 16 16" xml:space="preserve"><g id="feed_1_"><g><path fill-rule="evenodd" d="M1.99,11.99c-1.1,0-2,0.9-2,2s0.9,2,2,2s2-0.9,2-2S3.1,11.99,1.99,11.99z M2.99,7.99c-0.55,0-1,0.45-1,1s0.45,1,1,1c1.66,0,3,1.34,3,3c0,0.55,0.45,1,1,1s1-0.45,1-1C7.99,10.23,5.75,7.99,2.99,7.99z M2.99,3.99c-0.55,0-1,0.45-1,1s0.45,1,1,1c3.87,0,7,3.13,7,7c0,0.55,0.45,1,1,1s1-0.45,1-1C11.99,8.02,7.96,3.99,2.99,3.99z M2.99-0.01c-0.55,0-1,0.45-1,1s0.45,1,1,1c6.08,0,11,4.92,11,11c0,0.55,0.45,1,1,1s1-0.45,1-1C15.99,5.81,10.17-0.01,2.99-0.01z" clip-rule="evenodd"/></g></g></svg>