<svg xmlns="http://www.w3.org/2000/svg" xmlns:xlink="http://www.w3.org/1999/xlink" id="Layer_1" x="0" y="0" enable-background="new 0 0 16 16" version="1.1" viewBox="0 0 16 16" xml:space="preserve"><g id="film"><g><path fill-rule="evenodd" d="M15,1h-5v2H6V1H1C0.45,1,0,1.45,0,2v11c0,0.55,0.45,1,1,1h5v-2h4v2h5 c0.55,0,1-0.45,1-1V2C16,1.45,15.55,1,15,1z M4,13H2v-2h2V13z M4,10H2V8h2V10z M4,7H2V5h2V7z M4,4H2V2h2V4z M10,10H6V5h4V10z M14,13h-2v-2h2V13z M14,10h-2V8h2V10z M14,7h-2V5h2V7z M14,4h-2V2h2V4z" clip-rule="evenodd"/></g></g></svg>