<svg xmlns="http://www.w3.org/2000/svg" xmlns:xlink="http://www.w3.org/1999/xlink" id="Layer_1" x="0" y="0" enable-background="new 0 0 16 16" version="1.1" viewBox="0 0 16 16" xml:space="preserve"><g id="flag_1_"><g><path fill-rule="evenodd" d="M2.99,2.99c-0.55,0-1,0.45-1,1v11c0,0.55,0.45,1,1,1s1-0.45,1-1v-11 C3.99,3.44,3.54,2.99,2.99,2.99z M2.99-0.01c-0.55,0-1,0.45-1,1s0.45,1,1,1s1-0.45,1-1S3.54-0.01,2.99-0.01z M4.99,3.02v7.23 c2.07-2.11,5.92,1.75,9,0V3.02C10.99,5.09,7.05,0.99,4.99,3.02z" clip-rule="evenodd"/></g></g></svg>