<svg xmlns="http://www.w3.org/2000/svg" xmlns:xlink="http://www.w3.org/1999/xlink" id="Layer_1" x="0" y="0" enable-background="new 0 0 16 16" version="1.1" viewBox="0 0 16 16" xml:space="preserve"><g id="flows_3_"><g><path fill-rule="evenodd" d="M13.5,6c-1.21,0-2.22,0.86-2.45,2h-1.3L5.74,4L4.99,4.75L8.25,8h-3.3 C4.72,6.86,3.71,6,2.5,6C1.12,6,0,7.12,0,8.5C0,9.88,1.12,11,2.5,11c1.21,0,2.22-0.86,2.45-2h3.3l-3.26,3.25L5.74,13l4.01-4h1.3 c0.23,1.14,1.24,2,2.45,2c1.38,0,2.5-1.12,2.5-2.5C16,7.12,14.88,6,13.5,6z" clip-rule="evenodd"/></g></g></svg>