<svg xmlns="http://www.w3.org/2000/svg" xmlns:xlink="http://www.w3.org/1999/xlink" id="Rounded_Rectangle_4_1_" x="0" y="0" enable-background="new 0 0 16 16" version="1.1" viewBox="0 0 16 16" xml:space="preserve"><g id="Rounded_Rectangle_4"><g><path fill-rule="evenodd" d="M13,12h1c0.55,0,1-0.45,1-1V8h-3v3C12,11.55,12.45,12,13,12z M10,2 c0-0.55-0.45-1-1-1H8C7.45,1,7,1.45,7,2v3h3V2z M10,6H7v3h3V6z M15,2c0-0.55-0.45-1-1-1h-1c-0.55,0-1,0.45-1,1v2h3V2z M15,5h-3v2 h3V5z M5,5H2v3h3V5z M3,12h1c0.55,0,1-0.45,1-1V9H2v2C2,11.55,2.45,12,3,12z M15,13H2c-0.55,0-1,0.45-1,1s0.45,1,1,1h13 c0.55,0,1-0.45,1-1S15.55,13,15,13z M5,2c0-0.55-0.45-1-1-1H3C2.45,1,2,1.45,2,2v2h3V2z M8,12h1c0.55,0,1-0.45,1-1v-1H7v1 C7,11.55,7.45,12,8,12z" clip-rule="evenodd"/></g></g></svg>