<svg xmlns="http://www.w3.org/2000/svg" xmlns:xlink="http://www.w3.org/1999/xlink" id="Layer_1" x="0" y="0" enable-background="new 0 0 16 16" version="1.1" viewBox="0 0 16 16" xml:space="preserve"><g id="git_commit"><g><path fill-rule="evenodd" d="M15,7h-3.14c-0.45-1.72-2-3-3.86-3S4.59,5.28,4.14,7H1C0.45,7,0,7.45,0,8 c0,0.55,0.45,1,1,1h3.14c0.45,1.72,2,3,3.86,3s3.41-1.28,3.86-3H15c0.55,0,1-0.45,1-1C16,7.45,15.55,7,15,7z M8,10 c-1.1,0-2-0.9-2-2c0-1.1,0.9-2,2-2s2,0.9,2,2C10,9.1,9.1,10,8,10z" clip-rule="evenodd"/></g></g></svg>