<svg xmlns="http://www.w3.org/2000/svg" xmlns:xlink="http://www.w3.org/1999/xlink" id="Layer_1" x="0" y="0" enable-background="new 0 0 16 16" version="1.1" viewBox="0 0 16 16" xml:space="preserve"><g id="group_objects_2_"><g><path fill-rule="evenodd" d="M5,6C3.9,6,3,6.9,3,8c0,1.1,0.9,2,2,2s2-0.9,2-2C7,6.9,6.1,6,5,6z M11,3H5 C2.24,3,0,5.24,0,8s2.24,5,5,5h6c2.76,0,5-2.24,5-5S13.76,3,11,3z M11,12H5c-2.21,0-4-1.79-4-4c0-2.21,1.79-4,4-4h6 c2.21,0,4,1.79,4,4C15,10.21,13.21,12,11,12z M11,6C9.9,6,9,6.9,9,8c0,1.1,0.9,2,2,2s2-0.9,2-2C13,6.9,12.1,6,11,6z" clip-rule="evenodd"/></g></g></svg>