<svg xmlns="http://www.w3.org/2000/svg" xmlns:xlink="http://www.w3.org/1999/xlink" id="Rounded_Rectangle_5_1_" x="0" y="0" enable-background="new 0 0 16 16" version="1.1" viewBox="0 0 16 16" xml:space="preserve"><g id="Rounded_Rectangle_5"><g><path fill-rule="evenodd" d="M10,12c0.55,0,1-0.45,1-1V3c0-0.55-0.45-1-1-1S9,2.45,9,3v8 C9,11.55,9.45,12,10,12z M13,12c0.55,0,1-0.45,1-1V6c0-0.55-0.45-1-1-1s-1,0.45-1,1v5C12,11.55,12.45,12,13,12z M15,13H1 c-0.55,0-1,0.45-1,1s0.45,1,1,1h14c0.55,0,1-0.45,1-1S15.55,13,15,13z M6,12c0.55,0,1-0.45,1-1V8c0-0.55-0.45-1-1-1S5,7.45,5,8v3 C5,11.55,5.45,12,6,12z M3,12c0.55,0,1-0.45,1-1V2c0-0.55-0.45-1-1-1S2,1.45,2,2v9C2,11.55,2.45,12,3,12z" clip-rule="evenodd"/></g></g></svg>