<svg xmlns="http://www.w3.org/2000/svg" xmlns:xlink="http://www.w3.org/1999/xlink" id="Layer_1" x="0" y="0" enable-background="new 0 0 16 16" version="1.1" viewBox="0 0 16 16" xml:space="preserve"><title>Shape</title><desc>Created with Sketch.</desc><g id="Page-1"><g id="Artboard-1"><path id="Shape" d="M13,5h-2v2h2V5L13,5z M13,11h-2v2h2V11L13,11z M13,8h-2v2h2V8L13,8z M15,0H1 C0.4,0,0,0.4,0,1v14c0,0.6,0.4,1,1,1h14c0.6,0,1-0.4,1-1V1C16,0.4,15.6,0,15,0L15,0z M14,14H2V2h12V14L14,14z M7,11H5v2h2V11L7,11 z M10,11H8v2h2V11L10,11z"/></g></g></svg>