<svg xmlns="http://www.w3.org/2000/svg" xmlns:xlink="http://www.w3.org/1999/xlink" id="Layer_1" x="0" y="0" enable-background="new 0 0 16 16" version="1.1" viewBox="0 0 16 16" xml:space="preserve"><title>Shape</title><desc>Created with Sketch.</desc><g id="Page-1"><g id="Artboard-1"><path id="Shape" d="M5,9h2v2c0,0.6,0.4,1,1,1s1-0.4,1-1V9h2c0.6,0,1-0.4,1-1s-0.4-1-1-1H9V5 c0-0.6-0.4-1-1-1S7,4.4,7,5v2H5C4.4,7,4,7.4,4,8S4.4,9,5,9L5,9z M15,0H1C0.4,0,0,0.4,0,1v14c0,0.6,0.4,1,1,1h14c0.6,0,1-0.4,1-1V1 C16,0.4,15.6,0,15,0L15,0z M14,14H2V2h12V14L14,14z"/></g></g></svg>