<svg xmlns="http://www.w3.org/2000/svg" xmlns:xlink="http://www.w3.org/1999/xlink" id="Layer_1" x="0" y="0" enable-background="new 0 0 16 16" version="1.1" viewBox="0 0 16 16" xml:space="preserve"><g id="layout_sorted_clusters"><g><path fill-rule="evenodd" d="M2,6C0.9,6,0,6.9,0,8s0.9,2,2,2s2-0.9,2-2S3.1,6,2,6z M2,12c-1.1,0-2,0.9-2,2 s0.9,2,2,2s2-0.9,2-2S3.1,12,2,12z M2,0C0.9,0,0,0.9,0,2s0.9,2,2,2s2-0.9,2-2S3.1,0,2,0z M14,6c-1.1,0-2,0.9-2,2s0.9,2,2,2 s2-0.9,2-2S15.1,6,14,6z M8,9c-1.1,0-2,0.9-2,2s0.9,2,2,2s2-0.9,2-2S9.1,9,8,9z M8,3C6.9,3,6,3.9,6,5s0.9,2,2,2s2-0.9,2-2 S9.1,3,8,3z" clip-rule="evenodd"/></g></g></svg>