<svg xmlns="http://www.w3.org/2000/svg" xmlns:xlink="http://www.w3.org/1999/xlink" id="Rounded_Rectangle_1_copy_3_1_" x="0" y="0" enable-background="new 0 0 16 16" version="1.1" viewBox="0 0 16 16" xml:space="preserve"><g id="Rounded_Rectangle_1_copy_3"><g><path fill-rule="evenodd" d="M1,3h14c0.55,0,1-0.45,1-1s-0.45-1-1-1H1C0.45,1,0,1.45,0,2S0.45,3,1,3z M15,13 H1c-0.55,0-1,0.45-1,1s0.45,1,1,1h14c0.55,0,1-0.45,1-1S15.55,13,15,13z M15,9H1c-0.55,0-1,0.45-1,1s0.45,1,1,1h14 c0.55,0,1-0.45,1-1S15.55,9,15,9z M15,5H1C0.45,5,0,5.45,0,6s0.45,1,1,1h14c0.55,0,1-0.45,1-1S15.55,5,15,5z" clip-rule="evenodd"/></g></g></svg>