<svg xmlns="http://www.w3.org/2000/svg" xmlns:xlink="http://www.w3.org/1999/xlink" id="Layer_1" x="0" y="0" enable-background="new 0 0 16 16" version="1.1" viewBox="0 0 16 16" xml:space="preserve"><g id="media_1_"><g><path fill-rule="evenodd" d="M11.99,6.99c0.55,0,1-0.45,1-1s-0.45-1-1-1s-1,0.45-1,1S11.44,6.99,11.99,6.99z M14.99,1.99h-14c-0.55,0-1,0.45-1,1v10c0,0.55,0.45,1,1,1h14c0.55,0,1-0.45,1-1v-10C15.99,2.44,15.54,1.99,14.99,1.99z M13.99,10.99l-5-3l-1,2l-3-4l-3,5v-7h12V10.99z" clip-rule="evenodd"/></g></g></svg>