<svg xmlns="http://www.w3.org/2000/svg" xmlns:xlink="http://www.w3.org/1999/xlink" id="Layer_1" x="0" y="0" enable-background="new 0 0 16 16" version="1.1" viewBox="0 0 16 16" xml:space="preserve"><g id="hamburger_close_3_"><g><path fill-rule="evenodd" d="M14.99,6.99h-9c-0.55,0-1,0.45-1,1s0.45,1,1,1h9c0.55,0,1-0.45,1-1 S15.54,6.99,14.99,6.99z M2.99,4.99c-0.28,0-0.53,0.11-0.71,0.29l-2,2C0.1,7.47-0.01,7.72-0.01,7.99S0.1,8.52,0.28,8.7l2,2 c0.18,0.18,0.43,0.29,0.71,0.29c0.55,0,1-0.45,1-1v-4C3.99,5.44,3.54,4.99,2.99,4.99z M5.99,3.99h9c0.55,0,1-0.45,1-1s-0.45-1-1-1 h-9c-0.55,0-1,0.45-1,1S5.44,3.99,5.99,3.99z M14.99,11.99h-9c-0.55,0-1,0.45-1,1s0.45,1,1,1h9c0.55,0,1-0.45,1-1 S15.54,11.99,14.99,11.99z" clip-rule="evenodd"/></g></g></svg>