<svg xmlns="http://www.w3.org/2000/svg" xmlns:xlink="http://www.w3.org/1999/xlink" id="Layer_1" x="0" y="0" enable-background="new 0 0 16 16" version="1.1" viewBox="0 0 16 16" xml:space="preserve"><g id="minimize_1_"><g><path fill-rule="evenodd" d="M15.99,0.99c0-0.55-0.45-1-1-1c-0.28,0-0.53,0.11-0.71,0.29l-3.29,3.29V1.99 c0-0.55-0.45-1-1-1s-1,0.45-1,1v4c0,0.55,0.45,1,1,1h4c0.55,0,1-0.45,1-1s-0.45-1-1-1h-1.59L15.7,1.7 C15.88,1.52,15.99,1.27,15.99,0.99z M5.99,8.99h-4c-0.55,0-1,0.45-1,1s0.45,1,1,1h1.59l-3.29,3.29c-0.18,0.18-0.29,0.43-0.29,0.71 c0,0.55,0.45,1,1,1c0.28,0,0.53-0.11,0.71-0.29l3.29-3.29v1.59c0,0.55,0.45,1,1,1s1-0.45,1-1v-4C6.99,9.44,6.54,8.99,5.99,8.99z" clip-rule="evenodd"/></g></g></svg>