<svg xmlns="http://www.w3.org/2000/svg" xmlns:xlink="http://www.w3.org/1999/xlink" id="Layer_1" x="0" y="0" enable-background="new 0 0 16 16" version="1.1" viewBox="0 0 16 16" xml:space="preserve"><g id="music"><g><path fill-rule="evenodd" d="M15,0c-0.07,0-0.13,0.03-0.19,0.04l0-0.02l-10,2l0,0.02C4.35,2.13,4,2.52,4,3 v9.12C3.69,12.05,3.35,12,3,12c-1.66,0-3,0.9-3,2c0,1.1,1.34,2,3,2s3-0.9,3-2V6.32l8-1.6v5.4C13.69,10.05,13.35,10,13,10 c-1.66,0-3,0.9-3,2s1.34,2,3,2s3-0.9,3-2V1C16,0.45,15.55,0,15,0z" clip-rule="evenodd"/></g></g></svg>