<svg xmlns="http://www.w3.org/2000/svg" xmlns:xlink="http://www.w3.org/1999/xlink" id="Layer_1" x="0" y="0" enable-background="new 0 0 16 16" version="1.1" viewBox="0 0 16 16" xml:space="preserve"><g id="switch_to_1_column_2_"><g><path fill-rule="evenodd" d="M11.99-0.01h-3c-0.55,0-1,0.45-1,1v14c0,0.55,0.45,1,1,1h3c0.55,0,1-0.45,1-1 v-14C12.99,0.44,12.54-0.01,11.99-0.01z M5.99,4.99c-0.28,0-0.53,0.11-0.71,0.29l-2,2C3.1,7.47,2.99,7.72,2.99,7.99 S3.1,8.52,3.28,8.7l2,2c0.18,0.18,0.43,0.29,0.71,0.29c0.55,0,1-0.45,1-1v-4C6.99,5.44,6.54,4.99,5.99,4.99z" clip-rule="evenodd"/></g></g></svg>