<svg xmlns="http://www.w3.org/2000/svg" xmlns:xlink="http://www.w3.org/1999/xlink" id="Layer_1" x="0" y="0" enable-background="new 0 0 16 16" version="1.1" viewBox="0 0 16 16" xml:space="preserve"><title>pt-icon-panel-stats</title><desc>Created with Sketch.</desc><g><rect width="3" height="1" x="10" y="4" fill="#10161A"/><rect width="3" height="1" x="10" y="6" fill="#10161A"/><rect width="3" height="1" x="10" y="8" fill="#10161A"/><rect width="3" height="1" x="10" y="10" fill="#10161A"/><path fill="#10161A" d="M15,1H1C0.4,1,0,1.4,0,2v11c0,0.6,0.4,1,1,1h14c0.6,0,1-0.4,1-1V2C16,1.4,15.6,1,15,1z M8,12H2V3h6V12z M14,12H9V3h5V12z"/></g></svg>