<svg xmlns="http://www.w3.org/2000/svg" xmlns:xlink="http://www.w3.org/1999/xlink" id="Layer_1" x="0" y="0" enable-background="new 0 0 16 16" version="1.1" viewBox="0 0 16 16" xml:space="preserve"><g id="projects_3_"><g><path fill-rule="evenodd" d="M14,3c0-0.55-0.45-1-1-1H3C2.45,2,2,2.45,2,3v1h12V3z M12,0H4C3.45,0,3,0.45,3,1 h10C13,0.45,12.55,0,12,0z M15,5H1C0.45,5,0,5.45,0,6v9c0,0.55,0.45,1,1,1h14c0.55,0,1-0.45,1-1V6C16,5.45,15.55,5,15,5z M12,11 c0,0.55-0.45,1-1,1H5c-0.55,0-1-0.45-1-1V9h1v2h6V9h1V11z" clip-rule="evenodd"/></g></g></svg>