<svg xmlns="http://www.w3.org/2000/svg" xmlns:xlink="http://www.w3.org/1999/xlink" id="Layer_1" x="0" y="0" enable-background="new 0 0 16 16" version="1.1" viewBox="0 0 16 16" xml:space="preserve"><g id="remove_3_"><g><path fill-rule="evenodd" d="M10.99,6.99h-6c-0.55,0-1,0.45-1,1s0.45,1,1,1h6c0.55,0,1-0.45,1-1 S11.54,6.99,10.99,6.99z M7.99-0.01c-4.42,0-8,3.58-8,8s3.58,8,8,8s8-3.58,8-8S12.41-0.01,7.99-0.01z M7.99,13.99 c-3.31,0-6-2.69-6-6s2.69-6,6-6s6,2.69,6,6S11.31,13.99,7.99,13.99z" clip-rule="evenodd"/></g></g></svg>