<svg xmlns="http://www.w3.org/2000/svg" xmlns:xlink="http://www.w3.org/1999/xlink" id="Layer_1" x="0" y="0" enable-background="new 0 0 16 16" version="1.1" viewBox="0 0 16 16" xml:space="preserve"><g id="remove_column_bottom"><g><path fill-rule="evenodd" d="M15,0H1C0.45,0,0,0.45,0,1v14c0,0.55,0.45,1,1,1h14c0.55,0,1-0.45,1-1V1 C16,0.45,15.55,0,15,0z M14,14H2V6h12V14z M14,5H2V2h12V5z M6,11h4c0.55,0,1-0.45,1-1s-0.45-1-1-1H6c-0.55,0-1,0.45-1,1 C5,10.55,5.45,11,6,11z" clip-rule="evenodd"/></g></g></svg>