<svg xmlns="http://www.w3.org/2000/svg" xmlns:xlink="http://www.w3.org/1999/xlink" id="Layer_1" x="0" y="0" enable-background="new 0 0 16 16" version="1.1" viewBox="0 0 16 16" xml:space="preserve"><title>Shape</title><desc>Created with Sketch.</desc><g id="Page-1"><g id="Artboard-1" transform="translate(0.000000, -3.000000)"><path id="Shape" d="M6.6,6.3C6.1,6.1,5.6,6,5,6c-2.8,0-5,2.2-5,5s2.2,5,5,5c0.6,0,1.1-0.1,1.6-0.3 c-1.3-1.1-2.1-2.8-2.1-4.7S5.3,7.4,6.6,6.3L6.6,6.3z M8,7c-1.2,0.9-2,2.4-2,4s0.8,3.1,2,4c1.2-0.9,2-2.3,2-4S9.2,7.9,8,7L8,7z M11,6c-0.6,0-1.1,0.1-1.6,0.3c1.3,1.2,2.1,2.9,2.1,4.7s-0.8,3.6-2.1,4.7c0.5,0.2,1,0.3,1.6,0.3c2.8,0,5-2.2,5-5S13.8,6,11,6L11,6 z"/></g></g></svg>