<svg xmlns="http://www.w3.org/2000/svg" xmlns:xlink="http://www.w3.org/1999/xlink" id="Layer_1" x="0" y="0" enable-background="new 0 0 16 16" version="1.1" viewBox="0 0 16 16" xml:space="preserve"><g id="select_2_"><g><path fill-rule="evenodd" d="M16,15c0-0.28-0.12-0.52-0.31-0.69l0.02-0.02l-3.12-3.12L16,10.33L7.95,7.47 C7.98,7.38,8,7.3,8,7.2V2c0-0.55-0.45-1-1-1H3c0-0.55-0.45-1-1-1S1,0.45,1,1C0.45,1,0,1.45,0,2c0,0.55,0.45,1,1,1v4 c0,0.55,0.45,1,1,1h5.2c0.1,0,0.18-0.02,0.27-0.05L10.33,16l0.85-3.41l3.12,3.12l0.02-0.02C14.48,15.88,14.72,16,15,16 c0.04,0,0.07-0.02,0.1-0.02c0.03,0,0.06,0.02,0.1,0.02c0.44,0,0.8-0.36,0.8-0.8c0-0.04-0.02-0.07-0.02-0.1 C15.98,15.07,16,15.04,16,15z M6,6H3V3h3V6z" clip-rule="evenodd"/></g></g></svg>