<svg xmlns="http://www.w3.org/2000/svg" xmlns:xlink="http://www.w3.org/1999/xlink" id="Layer_1" x="0" y="0" enable-background="new 0 0 16 16" version="1.1" viewBox="0 0 16 16" xml:space="preserve"><title>Shape</title><desc>Created with Sketch.</desc><g id="Page-1"><g id="Artboard-1"><path id="Shape" d="M15,7.5c-0.8,0-1.5-0.4-2-1l-1.2,1.2c-0.4,0.5-1.1,0.7-1.8,0.7 C8.6,8.5,7.5,7.4,7.5,6c0-0.7,0.3-1.3,0.7-1.8L9.5,3c-0.6-0.5-1-1.2-1-2c0-0.3,0.1-0.7,0.2-1C8.5,0,8.2,0,8,0C3.6,0,0,3.6,0,8 s3.6,8,8,8s8-3.6,8-8c0-0.2,0-0.5,0-0.7C15.7,7.4,15.4,7.5,15,7.5L15,7.5z M15,0h-4c-0.6,0-1,0.5-1,1s0.4,1,1,1h1.6L9.3,5.3 C9.1,5.5,9,5.7,9,6c0,0.5,0.4,1,1,1c0.3,0,0.5-0.1,0.7-0.3L14,3.4V5c0,0.6,0.4,1,1,1c0.5,0,1-0.4,1-1V1C16,0.5,15.6,0,15,0L15,0z"/></g></g></svg>