<svg xmlns="http://www.w3.org/2000/svg" xmlns:xlink="http://www.w3.org/1999/xlink" id="Layer_1" x="0" y="0" enable-background="new 0 0 16 16" version="1.1" viewBox="0 0 16 16" xml:space="preserve"><g id="sort_ascending"><g><path fill-rule="evenodd" d="M8,7h3c0.55,0,1-0.45,1-1c0-0.55-0.45-1-1-1H8C7.45,5,7,5.45,7,6 C7,6.55,7.45,7,8,7z M8,3h1c0.55,0,1-0.45,1-1c0-0.55-0.45-1-1-1H8C7.45,1,7,1.45,7,2C7,2.55,7.45,3,8,3z M8,11h5 c0.55,0,1-0.45,1-1c0-0.55-0.45-1-1-1H8c-0.55,0-1,0.45-1,1C7,10.55,7.45,11,8,11z M5,12c-0.28,0-0.53,0.11-0.71,0.29L4,12.59V9 c0-0.55-0.45-1-1-1S2,8.45,2,9v3.59l-0.29-0.29C1.53,12.11,1.28,12,1,12c-0.55,0-1,0.45-1,1c0,0.28,0.11,0.53,0.29,0.71l2,2 C2.47,15.89,2.72,16,3,16s0.53-0.11,0.71-0.29l2-2C5.89,13.53,6,13.28,6,13C6,12.45,5.55,12,5,12z M15,13H8c-0.55,0-1,0.45-1,1 c0,0.55,0.45,1,1,1h7c0.55,0,1-0.45,1-1C16,13.45,15.55,13,15,13z" clip-rule="evenodd"/></g></g></svg>