<svg xmlns="http://www.w3.org/2000/svg" xmlns:xlink="http://www.w3.org/1999/xlink" id="Layer_1" x="0" y="0" enable-background="new 0 0 16 16" version="1.1" viewBox="0 0 16 16" xml:space="preserve"><g id="step_backward"><g><path fill-rule="evenodd" d="M12,3c-0.24,0-0.44,0.09-0.62,0.23l-0.01-0.01L7,6.72V4c0-0.55-0.45-1-1-1H5 C4.45,3,4,3.45,4,4v8c0,0.55,0.45,1,1,1h1c0.55,0,1-0.45,1-1V9.28l4.38,3.5l0.01-0.01C11.56,12.91,11.76,13,12,13 c0.55,0,1-0.45,1-1V4C13,3.45,12.55,3,12,3z" clip-rule="evenodd"/></g></g></svg>