<svg xmlns="http://www.w3.org/2000/svg" xmlns:xlink="http://www.w3.org/1999/xlink" id="Layer_1" x="0" y="0" enable-background="new 0 0 16 16" version="1.1" viewBox="0 0 16 16" xml:space="preserve"><g id="symbol_diamond_6_"><g><path fill-rule="evenodd" d="M12,8.01c0-0.19-0.07-0.36-0.16-0.51l0.01-0.01l-3-5L8.84,2.5 C8.67,2.21,8.36,2.01,8,2.01S7.33,2.21,7.16,2.5L7.14,2.49l-3,5L4.16,7.5C4.07,7.65,4,7.82,4,8.01s0.07,0.36,0.16,0.51L4.14,8.52 l3,5l0.01-0.01C7.33,13.8,7.64,14.01,8,14.01s0.67-0.2,0.84-0.49l0.01,0.01l3-5l-0.01-0.01C11.93,8.36,12,8.2,12,8.01z" clip-rule="evenodd"/></g></g></svg>