<svg xmlns="http://www.w3.org/2000/svg" xmlns:xlink="http://www.w3.org/1999/xlink" id="Layer_1" x="0" y="0" enable-background="new 0 0 16 16" version="1.1" viewBox="0 0 16 16" xml:space="preserve"><title>Shape</title><desc>Created with Sketch.</desc><g id="Page-1"><g id="Artboard-1" transform="translate(0.000000, -1.000000)"><path id="Shape" d="M15,2H1C0.4,2,0,2.5,0,3v12c0,0.6,0.4,1,1,1h14c0.6,0,1-0.4,1-1V3 C16,2.5,15.6,2,15,2L15,2z M14,14H2v-2h12V14L14,14z M14,11H2V9h12V11L14,11z M14,8H2V6h12V8L14,8z"/></g></g></svg>