<svg xmlns="http://www.w3.org/2000/svg" xmlns:xlink="http://www.w3.org/1999/xlink" id="Rounded_Rectangle_4_1_" x="0" y="0" enable-background="new 0 0 16 16" version="1.1" viewBox="0 0 16 16" xml:space="preserve"><g id="Rounded_Rectangle_4"><g><path fill-rule="evenodd" d="M8,12h1c0.55,0,1-0.45,1-1V2c0-0.55-0.45-1-1-1H8C7.45,1,7,1.45,7,2v9 C7,11.55,7.45,12,8,12z M13,12h1c0.55,0,1-0.45,1-1V5c0-0.55-0.45-1-1-1h-1c-0.55,0-1,0.45-1,1v6C12,11.55,12.45,12,13,12z M15,13 H2c-0.55,0-1,0.45-1,1s0.45,1,1,1h13c0.55,0,1-0.45,1-1S15.55,13,15,13z M3,12h1c0.55,0,1-0.45,1-1V7c0-0.55-0.45-1-1-1H3 C2.45,6,2,6.45,2,7v4C2,11.55,2.45,12,3,12z" clip-rule="evenodd"/></g></g></svg>