<svg xmlns="http://www.w3.org/2000/svg" xmlns:xlink="http://www.w3.org/1999/xlink" id="Layer_1" x="0" y="0" enable-background="new 0 0 16 16" version="1.1" viewBox="0 0 16 16" xml:space="preserve"><g id="trending_up"><g><path fill-rule="evenodd" d="M15,4h-3c-0.55,0-1,0.45-1,1s0.45,1,1,1h0.59L8.8,9.78L5.45,8.11l0,0.01 C5.31,8.05,5.16,8,5,8S4.69,8.05,4.56,8.11l0-0.01l-4,2l0,0.01C0.23,10.28,0,10.61,0,11c0,0.55,0.45,1,1,1 c0.16,0,0.31-0.05,0.44-0.11l0,0.01L5,10.12l3.55,1.78l0-0.01C8.69,11.95,8.84,12,9,12c0.28,0,0.53-0.11,0.71-0.29L14,7.41V8 c0,0.55,0.45,1,1,1s1-0.45,1-1V5C16,4.45,15.55,4,15,4z" clip-rule="evenodd"/></g></g></svg>