<svg xmlns="http://www.w3.org/2000/svg" xmlns:xlink="http://www.w3.org/1999/xlink" id="Layer_1" x="0" y="0" enable-background="new 0 0 16 16" version="1.1" viewBox="0 0 16 16" xml:space="preserve"><g id="switch_to_2_columns_1_"><g><path fill-rule="evenodd" d="M3.99-0.01h-3c-0.55,0-1,0.45-1,1v14c0,0.55,0.45,1,1,1h3c0.55,0,1-0.45,1-1v-14 C4.99,0.44,4.54-0.01,3.99-0.01z M15.7,7.29l-2-2c-0.18-0.18-0.43-0.29-0.71-0.29c-0.55,0-1,0.45-1,1v4c0,0.55,0.45,1,1,1 c0.28,0,0.53-0.11,0.71-0.29l2-2c0.18-0.18,0.29-0.43,0.29-0.71S15.88,7.47,15.7,7.29z M9.99-0.01h-3c-0.55,0-1,0.45-1,1v14 c0,0.55,0.45,1,1,1h3c0.55,0,1-0.45,1-1v-14C10.99,0.44,10.54-0.01,9.99-0.01z" clip-rule="evenodd"/></g></g></svg>