<svg xmlns="http://www.w3.org/2000/svg" xmlns:xlink="http://www.w3.org/1999/xlink" id="Shape_1_1_" x="0" y="0" enable-background="new 0 0 16 16" version="1.1" viewBox="0 0 16 16" xml:space="preserve"><g id="Shape_1"><g><path fill-rule="evenodd" d="M6,7C5.45,7,5,7.45,5,8v7c0,0.55,0.45,1,1,1s1-0.45,1-1V8C7,7.45,6.55,7,6,7z M2,9c-0.55,0-1,0.45-1,1v5c0,0.55,0.45,1,1,1s1-0.45,1-1v-5C3,9.45,2.55,9,2,9z M10,4C9.45,4,9,4.45,9,5v10c0,0.55,0.45,1,1,1 s1-0.45,1-1V5C11,4.45,10.55,4,10,4z M14,0c-0.55,0-1,0.45-1,1v14c0,0.55,0.45,1,1,1s1-0.45,1-1V1C15,0.45,14.55,0,14,0z" clip-rule="evenodd"/></g></g></svg>