<svg xmlns="http://www.w3.org/2000/svg" xmlns:xlink="http://www.w3.org/1999/xlink" id="Layer_1" x="0" y="0" enable-background="new 0 0 16 16" version="1.1" viewBox="0 0 16 16" xml:space="preserve"><g id="histogram_vertical_descending"><g><path fill-rule="evenodd" d="M6,4C5.45,4,5,4.45,5,5v10c0,0.55,0.45,1,1,1s1-0.45,1-1V5C7,4.45,6.55,4,6,4z M2,0C1.45,0,1,0.45,1,1v14c0,0.55,0.45,1,1,1s1-0.45,1-1V1C3,0.45,2.55,0,2,0z M10,7C9.45,7,9,7.45,9,8v7c0,0.55,0.45,1,1,1 s1-0.45,1-1V8C11,7.45,10.55,7,10,7z M14,9c-0.55,0-1,0.45-1,1v5c0,0.55,0.45,1,1,1s1-0.45,1-1v-5C15,9.45,14.55,9,14,9z" clip-rule="evenodd"/></g></g></svg>