<svg xmlns="http://www.w3.org/2000/svg" xmlns:xlink="http://www.w3.org/1999/xlink" id="Layer_1" x="0" y="0" enable-background="new 0 0 16 16" version="1.1" viewBox="0 0 16 16" xml:space="preserve"><g id="widget_2_"><g><path fill-rule="evenodd" d="M13,11h2V5h-2V11z M3,5H1v6h2V5z M14,4c1.1,0,2-0.9,2-2c0-1.1-0.9-2-2-2 s-2,0.9-2,2C12,3.1,12.9,4,14,4z M2,12c-1.1,0-2,0.9-2,2c0,1.1,0.9,2,2,2s2-0.9,2-2C4,12.9,3.1,12,2,12z M14,12c-1.1,0-2,0.9-2,2 c0,1.1,0.9,2,2,2s2-0.9,2-2C16,12.9,15.1,12,14,12z M5,3h6V1H5V3z M2,0C0.9,0,0,0.9,0,2c0,1.1,0.9,2,2,2s2-0.9,2-2 C4,0.9,3.1,0,2,0z M5,15h6v-2H5V15z" clip-rule="evenodd"/></g></g></svg>