<svg xmlns="http://www.w3.org/2000/svg" xmlns:xlink="http://www.w3.org/1999/xlink" width="406" height="165"><defs><rect id="alert-a" width="371" height="143" x="16" y="13" rx="10"/><mask id="alert-i" width="371" height="143" x="0" y="0" fill="#fff"><use xlink:href="#alert-a"/></mask><circle id="alert-b" cx="17" cy="14" r="6"/><mask id="alert-j" width="12" height="12" x="0" y="0" fill="#fff"><use xlink:href="#alert-b"/></mask><circle id="alert-c" cx="17" cy="155" r="6"/><mask id="alert-k" width="12" height="12" x="0" y="0" fill="#fff"><use xlink:href="#alert-c"/></mask><circle id="alert-d" cx="386" cy="155" r="6"/><mask id="alert-l" width="12" height="12" x="0" y="0" fill="#fff"><use xlink:href="#alert-d"/></mask><circle id="alert-e" cx="386" cy="14" r="6"/><mask id="alert-m" width="12" height="12" x="0" y="0" fill="#fff"><use xlink:href="#alert-e"/></mask><path id="alert-f" d="M57.72 38.98c-.36-.58-.98-.98-1.72-.98s-1.36.42-1.7 1L40.28 62.98c-.16.32-.28.64-.28 1.02 0 1.1.9 2 2 2h28c1.1 0 2-.9 2-2 0-.36-.12-.7-.3-1L57.72 38.98zM54 62v-4h4v4h-4zm0-6V46h4v10h-4z"/><mask id="alert-n" width="36" height="32" x="-2" y="-2"><path fill="#fff" d="M38 36h36v32H38z"/><use xlink:href="#alert-f"/></mask><path id="alert-g" d="M195 102.994a3 3 0 0 1 3.004-2.994h54.992a3 3 0 0 1 3.004 2.994v23.012a3 3 0 0 1-3.004 2.994h-54.992a3 3 0 0 1-3.004-2.994v-23.012z"/><mask id="alert-o" width="61" height="29" x="0" y="0" fill="#fff"><use xlink:href="#alert-g"/></mask><rect id="alert-h" width="96" height="29" x="266" y="100" rx="3"/><mask id="alert-p" width="96" height="29" x="0" y="0" fill="#fff"><use xlink:href="#alert-h"/></mask></defs><g fill="none" fill-rule="evenodd" opacity=".1"><g stroke="#FFF"><g><g opacity=".8"><g><use stroke-width="4" mask="url(#alert-i)" opacity=".4" xlink:href="#alert-a"/><path stroke-opacity=".5" stroke-width="2" d="M.5 14h401M17 0v164.5M386 0v164.5M2.5 155h403"/><use stroke-width="2" mask="url(#alert-j)" opacity=".3" xlink:href="#alert-b"/><use stroke-width="2" mask="url(#alert-k)" opacity=".3" xlink:href="#alert-c"/><use stroke-width="2" mask="url(#alert-l)" opacity=".3" xlink:href="#alert-d"/><use stroke-width="2" mask="url(#alert-m)" opacity=".3" xlink:href="#alert-e"/><use stroke-width="4" mask="url(#alert-n)" xlink:href="#alert-f"/><use stroke-width="4" mask="url(#alert-o)" xlink:href="#alert-g"/><use stroke-width="4" mask="url(#alert-p)" xlink:href="#alert-h"/><path stroke-linecap="square" stroke-width="5" d="M95 48.5h235m-235 20h145"/><path stroke-linecap="square" stroke-width="3" d="M208 114.5h35m34.5 0H347"/></g></g></g></g></g></svg>