<svg xmlns="http://www.w3.org/2000/svg" xmlns:xlink="http://www.w3.org/1999/xlink" width="454" height="115"><defs><rect id="buttons-a" width="111" height="31" x="6" y="7" rx="3"/><mask id="buttons-I" width="111" height="31" x="0" y="0" fill="#fff"><use xlink:href="#buttons-a"/></mask><circle id="buttons-b" cx="7" cy="8" r="4"/><mask id="buttons-J" width="8" height="8" x="0" y="0" fill="#fff"><use xlink:href="#buttons-b"/></mask><circle id="buttons-c" cx="7" cy="37" r="4"/><mask id="buttons-K" width="8" height="8" x="0" y="0" fill="#fff"><use xlink:href="#buttons-c"/></mask><circle id="buttons-d" cx="116" cy="37" r="4"/><mask id="buttons-L" width="8" height="8" x="0" y="0" fill="#fff"><use xlink:href="#buttons-d"/></mask><circle id="buttons-e" cx="116" cy="8" r="4"/><mask id="buttons-M" width="8" height="8" x="0" y="0" fill="#fff"><use xlink:href="#buttons-e"/></mask><rect id="buttons-f" width="111" height="31" x="9" y="7" rx="3"/><mask id="buttons-N" width="111" height="31" x="0" y="0" fill="#fff"><use xlink:href="#buttons-f"/></mask><path id="buttons-g" d="M108 19c-.28 0-.53.11-.71.29L104 22.58l-3.29-3.29a1.003 1.003 0 0 0-1.42 1.42l4 4c.18.18.43.29.71.29.28 0 .53-.11.71-.29l4-4A1.003 1.003 0 0 0 108 19z"/><mask id="buttons-O" width="10" height="6" x="0" y="0" fill="#fff"><use xlink:href="#buttons-g"/></mask><circle id="buttons-h" cx="10" cy="8" r="4"/><mask id="buttons-P" width="8" height="8" x="0" y="0" fill="#fff"><use xlink:href="#buttons-h"/></mask><circle id="buttons-i" cx="10" cy="37" r="4"/><mask id="buttons-Q" width="8" height="8" x="0" y="0" fill="#fff"><use xlink:href="#buttons-i"/></mask><circle id="buttons-j" cx="119" cy="37" r="4"/><mask id="buttons-R" width="8" height="8" x="0" y="0" fill="#fff"><use xlink:href="#buttons-j"/></mask><circle id="buttons-k" cx="119" cy="8" r="4"/><mask id="buttons-S" width="8" height="8" x="0" y="0" fill="#fff"><use xlink:href="#buttons-k"/></mask><rect id="buttons-l" width="131" height="31" x="9" y="7" rx="3"/><mask id="buttons-T" width="131" height="31" x="0" y="0" fill="#fff"><use xlink:href="#buttons-l"/></mask><circle id="buttons-m" cx="10" cy="8" r="4"/><mask id="buttons-U" width="8" height="8" x="0" y="0" fill="#fff"><use xlink:href="#buttons-m"/></mask><circle id="buttons-n" cx="10" cy="37" r="4"/><mask id="buttons-V" width="8" height="8" x="0" y="0" fill="#fff"><use xlink:href="#buttons-n"/></mask><circle id="buttons-o" cx="139" cy="37" r="4"/><mask id="buttons-W" width="8" height="8" x="0" y="0" fill="#fff"><use xlink:href="#buttons-o"/></mask><circle id="buttons-p" cx="139" cy="8" r="4"/><mask id="buttons-X" width="8" height="8" x="0" y="0" fill="#fff"><use xlink:href="#buttons-p"/></mask><path id="buttons-q" d="M30 21h-2v-2c0-.55-.45-1-1-1s-1 .45-1 1v2h-2c-.55 0-1 .45-1 1s.45 1 1 1h2v2c0 .55.45 1 1 1s1-.45 1-1v-2h2c.55 0 1-.45 1-1s-.45-1-1-1zm-3-7c-4.42 0-8 3.58-8 8s3.58 8 8 8 8-3.58 8-8-3.58-8-8-8zm0 14c-3.31 0-6-2.69-6-6s2.69-6 6-6 6 2.69 6 6-2.69 6-6 6z"/><mask id="buttons-Y" width="16" height="16" x="0" y="0" fill="#fff"><use xlink:href="#buttons-q"/></mask><rect id="buttons-r" width="121" height="41" x="6" y="7" rx="3"/><mask id="buttons-Z" width="121" height="41" x="0" y="0" fill="#fff"><use xlink:href="#buttons-r"/></mask><circle id="buttons-s" cx="7" cy="8" r="5"/><mask id="buttons-aa" width="10" height="10" x="0" y="0" fill="#fff"><use xlink:href="#buttons-s"/></mask><circle id="buttons-t" cx="7" cy="47" r="5"/><mask id="buttons-ab" width="10" height="10" x="0" y="0" fill="#fff"><use xlink:href="#buttons-t"/></mask><circle id="buttons-u" cx="126" cy="47" r="5"/><mask id="buttons-ac" width="10" height="10" x="0" y="0" fill="#fff"><use xlink:href="#buttons-u"/></mask><circle id="buttons-v" cx="126" cy="8" r="5"/><mask id="buttons-ad" width="10" height="10" x="0" y="0" fill="#fff"><use xlink:href="#buttons-v"/></mask><rect id="buttons-w" width="121" height="41" x="9" y="7" rx="3"/><mask id="buttons-ae" width="121" height="41" x="0" y="0" fill="#fff"><use xlink:href="#buttons-w"/></mask><path id="buttons-x" d="M113 24c-.28 0-.53.11-.71.29L109 27.58l-3.29-3.29a1.003 1.003 0 0 0-1.42 1.42l4 4c.18.18.43.29.71.29.28 0 .53-.11.71-.29l4-4A1.003 1.003 0 0 0 113 24z"/><mask id="buttons-af" width="10" height="6" x="0" y="0" fill="#fff"><use xlink:href="#buttons-x"/></mask><circle id="buttons-y" cx="10" cy="8" r="5"/><mask id="buttons-ag" width="10" height="10" x="0" y="0" fill="#fff"><use xlink:href="#buttons-y"/></mask><circle id="buttons-z" cx="10" cy="47" r="5"/><mask id="buttons-ah" width="10" height="10" x="0" y="0" fill="#fff"><use xlink:href="#buttons-z"/></mask><circle id="buttons-A" cx="129" cy="47" r="5"/><mask id="buttons-ai" width="10" height="10" x="0" y="0" fill="#fff"><use xlink:href="#buttons-A"/></mask><circle id="buttons-B" cx="129" cy="8" r="5"/><mask id="buttons-aj" width="10" height="10" x="0" y="0" fill="#fff"><use xlink:href="#buttons-B"/></mask><rect id="buttons-C" width="141" height="41" x="9" y="7" rx="3"/><mask id="buttons-ak" width="141" height="41" x="0" y="0" fill="#fff"><use xlink:href="#buttons-C"/></mask><circle id="buttons-D" cx="10" cy="8" r="5"/><mask id="buttons-al" width="10" height="10" x="0" y="0" fill="#fff"><use xlink:href="#buttons-D"/></mask><circle id="buttons-E" cx="10" cy="47" r="5"/><mask id="buttons-am" width="10" height="10" x="0" y="0" fill="#fff"><use xlink:href="#buttons-E"/></mask><circle id="buttons-F" cx="149" cy="47" r="5"/><mask id="buttons-an" width="10" height="10" x="0" y="0" fill="#fff"><use xlink:href="#buttons-F"/></mask><circle id="buttons-G" cx="149" cy="8" r="5"/><mask id="buttons-ao" width="10" height="10" x="0" y="0" fill="#fff"><use xlink:href="#buttons-G"/></mask><path id="buttons-H" d="M35 26h-2v-2c0-.55-.45-1-1-1s-1 .45-1 1v2h-2c-.55 0-1 .45-1 1s.45 1 1 1h2v2c0 .55.45 1 1 1s1-.45 1-1v-2h2c.55 0 1-.45 1-1s-.45-1-1-1zm-3-7c-4.42 0-8 3.58-8 8s3.58 8 8 8 8-3.58 8-8-3.58-8-8-8zm0 14c-3.31 0-6-2.69-6-6s2.69-6 6-6 6 2.69 6 6-2.69 6-6 6z"/><mask id="buttons-ap" width="16" height="16" x="0" y="0" fill="#fff"><use xlink:href="#buttons-H"/></mask></defs><g fill="none" fill-rule="evenodd" opacity=".1"><g stroke="#FFF"><g><g opacity=".8"><g><g><use stroke-width="4" mask="url(#buttons-I)" opacity=".4" xlink:href="#buttons-a"/><path stroke-opacity=".5" stroke-width="2" d="M7 0v44M116 2v42M0 8h124M1 37h121"/><use stroke-width="2" mask="url(#buttons-J)" opacity=".4" xlink:href="#buttons-b"/><use stroke-width="2" mask="url(#buttons-K)" opacity=".4" xlink:href="#buttons-c"/><use stroke-width="2" mask="url(#buttons-L)" opacity=".4" xlink:href="#buttons-d"/><use stroke-width="2" mask="url(#buttons-M)" opacity=".4" xlink:href="#buttons-e"/><path stroke-linecap="square" stroke-width="3" d="M20.5 22.5H103"/></g><g transform="translate(147)"><use stroke-width="4" mask="url(#buttons-N)" opacity=".4" xlink:href="#buttons-f"/><path stroke-opacity=".5" stroke-width="2" d="M10 0v44M119 2v42M90 2v42M0 8h124M0 37h124"/><use stroke-width="4" mask="url(#buttons-O)" xlink:href="#buttons-g"/><use stroke-width="2" mask="url(#buttons-P)" opacity=".4" xlink:href="#buttons-h"/><use stroke-width="2" mask="url(#buttons-Q)" opacity=".4" xlink:href="#buttons-i"/><use stroke-width="2" mask="url(#buttons-R)" opacity=".4" xlink:href="#buttons-j"/><use stroke-width="2" mask="url(#buttons-S)" opacity=".4" xlink:href="#buttons-k"/><path stroke-linecap="square" stroke-width="3" d="M21.5 22.5H74"/></g><g transform="translate(297)"><use stroke-width="4" mask="url(#buttons-T)" opacity=".4" xlink:href="#buttons-l"/><path stroke-opacity=".5" stroke-width="2" d="M10 0v44M139 2v42M0 8h144M2 37h141"/><use stroke-width="2" mask="url(#buttons-U)" opacity=".4" xlink:href="#buttons-m"/><use stroke-width="2" mask="url(#buttons-V)" opacity=".4" xlink:href="#buttons-n"/><use stroke-width="2" mask="url(#buttons-W)" opacity=".4" xlink:href="#buttons-o"/><use stroke-width="2" mask="url(#buttons-X)" opacity=".4" xlink:href="#buttons-p"/><path stroke-linecap="square" stroke-width="3" d="M42.5 22.5H125"/><use stroke-width="4" mask="url(#buttons-Y)" xlink:href="#buttons-q"/></g><g transform="translate(0 61)"><use stroke-width="4" mask="url(#buttons-Z)" opacity=".4" xlink:href="#buttons-r"/><path stroke-opacity=".5" stroke-width="2" d="M7 0v54M126 2v52M0 8h134M2 47h131"/><use stroke-width="2" mask="url(#buttons-aa)" opacity=".4" xlink:href="#buttons-s"/><use stroke-width="2" mask="url(#buttons-ab)" opacity=".4" xlink:href="#buttons-t"/><use stroke-width="2" mask="url(#buttons-ac)" opacity=".4" xlink:href="#buttons-u"/><use stroke-width="2" mask="url(#buttons-ad)" opacity=".4" xlink:href="#buttons-v"/><path stroke-linecap="square" stroke-width="3" d="M20.5 27.5H111"/></g><g transform="translate(147 61)"><use stroke-width="4" mask="url(#buttons-ae)" opacity=".4" xlink:href="#buttons-w"/><path stroke-opacity=".5" stroke-width="2" d="M10 0v54M129 2v52M90 2v52M0 8h134"/><use stroke-width="4" mask="url(#buttons-af)" xlink:href="#buttons-x"/><path stroke-opacity=".5" stroke-width="2" d="M2 47h133"/><use stroke-width="2" mask="url(#buttons-ag)" opacity=".4" xlink:href="#buttons-y"/><use stroke-width="2" mask="url(#buttons-ah)" opacity=".4" xlink:href="#buttons-z"/><use stroke-width="2" mask="url(#buttons-ai)" opacity=".4" xlink:href="#buttons-A"/><use stroke-width="2" mask="url(#buttons-aj)" opacity=".4" xlink:href="#buttons-B"/><path stroke-linecap="square" stroke-width="3" d="M21.5 27.5H74"/></g><g transform="translate(297 61)"><use stroke-width="4" mask="url(#buttons-ak)" opacity=".4" xlink:href="#buttons-C"/><path stroke-opacity=".5" stroke-width="2" d="M10 0v54M149 2v52M0 8h157M2 47h154"/><use stroke-width="2" mask="url(#buttons-al)" opacity=".4" xlink:href="#buttons-D"/><use stroke-width="2" mask="url(#buttons-am)" opacity=".4" xlink:href="#buttons-E"/><use stroke-width="2" mask="url(#buttons-an)" opacity=".4" xlink:href="#buttons-F"/><use stroke-width="2" mask="url(#buttons-ao)" opacity=".4" xlink:href="#buttons-G"/><path stroke-linecap="square" stroke-width="3" d="M52 27.5h82"/><use stroke-width="4" mask="url(#buttons-ap)" xlink:href="#buttons-H"/></g></g></g></g></g></g></svg>