<svg xmlns="http://www.w3.org/2000/svg" xmlns:xlink="http://www.w3.org/1999/xlink" width="475" height="293"><defs><path id="calendar-a" d="M13 10h451v274H13z"/><mask id="calendar-j" width="451" height="274" x="0" y="0" fill="#fff"><use xlink:href="#calendar-a"/></mask><circle id="calendar-b" cx="14" cy="11" r="6"/><mask id="calendar-k" width="12" height="12" x="0" y="0" fill="#fff"><use xlink:href="#calendar-b"/></mask><circle id="calendar-c" cx="14" cy="283" r="6"/><mask id="calendar-l" width="12" height="12" x="0" y="0" fill="#fff"><use xlink:href="#calendar-c"/></mask><circle id="calendar-d" cx="463" cy="282" r="6"/><mask id="calendar-m" width="12" height="12" x="0" y="0" fill="#fff"><use xlink:href="#calendar-d"/></mask><circle id="calendar-e" cx="463" cy="11" r="6"/><mask id="calendar-n" width="12" height="12" x="0" y="0" fill="#fff"><use xlink:href="#calendar-e"/></mask><path id="calendar-f" d="M32.42 42l3.29-3.29a1.003 1.003 0 0 0-1.42-1.42l-4 4c-.18.18-.29.43-.29.71 0 .28.11.53.29.71l4 4a1.003 1.003 0 0 0 1.42-1.42L32.42 42z"/><mask id="calendar-o" width="6" height="10" x="0" y="0" fill="#fff"><use xlink:href="#calendar-f"/></mask><path id="calendar-g" d="M446.42 42l3.29-3.29a1.003 1.003 0 0 0-1.42-1.42l-4 4c-.18.18-.29.43-.29.71 0 .28.11.53.29.71l4 4a1.003 1.003 0 0 0 1.42-1.42L446.42 42z"/><mask id="calendar-p" width="6" height="10" x="0" y="0" fill="#fff"><use xlink:href="#calendar-g"/></mask><path id="calendar-h" d="M113 154c0-1.657 1.347-3 3-3h24c1.657 0 3 1.347 3 3v24a3 3 0 0 1-3.002 3H116c-1.657 0-3-1.347-3-3v-24z"/><mask id="calendar-q" width="30" height="30" x="0" y="0" fill="#fff"><use xlink:href="#calendar-h"/></mask><path id="calendar-i" d="M243 181h30v30h-30z"/><mask id="calendar-r" width="30" height="30" x="0" y="0" fill="#fff"><use xlink:href="#calendar-i"/></mask></defs><g fill="none" fill-rule="evenodd" opacity=".1"><g stroke="#FFF"><g><g opacity=".8"><g><use stroke-width="4" mask="url(#calendar-j)" opacity=".4" xlink:href="#calendar-a"/><path stroke-opacity=".5" stroke-width="2" d="M14 0v292.5M.5 11h473M.5 11h463M3.5 283h471M463 0v292.5"/><use stroke-width="2" mask="url(#calendar-k)" opacity=".4" xlink:href="#calendar-b"/><use stroke-width="2" mask="url(#calendar-l)" opacity=".4" xlink:href="#calendar-c"/><use stroke-width="2" mask="url(#calendar-m)" opacity=".4" xlink:href="#calendar-d"/><use stroke-width="2" mask="url(#calendar-n)" opacity=".4" xlink:href="#calendar-e"/><path stroke-linecap="square" stroke-width="5" d="M99 41.5h64m154 0h64"/><use stroke-width="4" mask="url(#calendar-o)" xlink:href="#calendar-f"/><use stroke-width="4" mask="url(#calendar-p)" transform="rotate(-180 447 42)" xlink:href="#calendar-g"/><g stroke-linecap="square" stroke-width="4"><path d="M44 76H32m42 0H62m42 0H92m42 0h-12m42 0h-12m42 0h-12m42 0h-12"/></g><g stroke-linecap="square" stroke-width="2"><path d="M43 106H33m40 0H63m40 0H93m40 0h-10m40 0h-10m40 0h-10m40 0h-10"/></g><g stroke-linecap="square" stroke-width="2"><path d="M43 136H33m40 0H63m40 0H93m40 0h-10m40 0h-10m40 0h-10m40 0h-10"/></g><g stroke-linecap="square" stroke-width="2"><path d="M43 166H33m40 0H63m40 0H93m40 0h-10m40 0h-10m40 0h-10m40 0h-10"/></g><g stroke-linecap="square" stroke-width="2"><path d="M43 196H33m40 0H63m40 0H93m40 0h-10m40 0h-10m40 0h-10m40 0h-10"/></g><g stroke-linecap="square" stroke-width="2"><path d="M43 226H33m40 0H63m40 0H93m40 0h-10m40 0h-10m40 0h-10m40 0h-10"/></g><g stroke-linecap="square" stroke-width="2"><path d="M43 256H33m40 0H63m40 0H93m40 0h-10m40 0h-10m40 0h-10m40 0h-10"/></g><g stroke-linecap="square" stroke-width="4"><path d="M264 76h-12m42 0h-12m42 0h-12m42 0h-12m42 0h-12m42 0h-12m42 0h-12"/></g><g stroke-linecap="square" stroke-width="2"><path d="M263 106h-10m40 0h-10m40 0h-10m40 0h-10m40 0h-10m40 0h-10m40 0h-10"/></g><g stroke-linecap="square" stroke-width="2"><path d="M263 136h-10m40 0h-10m40 0h-10m40 0h-10m40 0h-10m40 0h-10m40 0h-10"/></g><g stroke-linecap="square" stroke-width="2"><path d="M263 166h-10m40 0h-10m40 0h-10m40 0h-10m40 0h-10m40 0h-10m40 0h-10"/></g><g stroke-linecap="square" stroke-width="2"><path d="M263 196h-10m40 0h-10m40 0h-10m40 0h-10m40 0h-10m40 0h-10m40 0h-10"/></g><g stroke-linecap="square" stroke-width="2"><path d="M263 226h-10m40 0h-10m40 0h-10m40 0h-10m40 0h-10m40 0h-10m40 0h-10"/></g><g stroke-linecap="square" stroke-width="2"><path d="M263 256h-10m40 0h-10m40 0h-10m40 0h-10m40 0h-10m40 0h-10m40 0h-10"/></g><use stroke-width="4" mask="url(#calendar-q)" xlink:href="#calendar-h"/><use stroke-width="4" mask="url(#calendar-r)" xlink:href="#calendar-i"/></g></g></g></g></g></svg>