<svg xmlns="http://www.w3.org/2000/svg" xmlns:xlink="http://www.w3.org/1999/xlink" width="168" height="77"><defs><path id="checkboxes-a" d="M0 .977h16v16H0z"/><mask id="checkboxes-f" width="16" height="16" x="0" y="0" fill="#fff"><use xlink:href="#checkboxes-a"/></mask><path id="checkboxes-b" d="M0 30.977h16v16H0z"/><mask id="checkboxes-g" width="16" height="16" x="0" y="0" fill="#fff"><use xlink:href="#checkboxes-b"/></mask><path id="checkboxes-c" d="M12 36c-.28 0-.53.11-.71.29L7 40.58l-2.29-2.29a1.003 1.003 0 0 0-1.42 1.42l3 3c.18.18.43.29.71.29.28 0 .53-.11.71-.29l5-5A1.003 1.003 0 0 0 12 36z"/><mask id="checkboxes-h" width="10" height="7" x="0" y="0" fill="#fff"><use xlink:href="#checkboxes-c"/></mask><path id="checkboxes-d" d="M0 60.977h16v16H0z"/><mask id="checkboxes-i" width="16" height="16" x="0" y="0" fill="#fff"><use xlink:href="#checkboxes-d"/></mask><path id="checkboxes-e" d="M11 68H5c-.55 0-1 .45-1 1s.45 1 1 1h6c.55 0 1-.45 1-1s-.45-1-1-1z"/><mask id="checkboxes-j" width="8" height="2" x="0" y="0" fill="#fff"><use xlink:href="#checkboxes-e"/></mask></defs><g fill="none" fill-rule="evenodd" opacity=".1"><g stroke="#FFF"><g><g><use stroke-width="4" mask="url(#checkboxes-f)" xlink:href="#checkboxes-a"/><path stroke-linecap="square" stroke-width="3" d="M26.5 8.5H76"/><use stroke-width="4" mask="url(#checkboxes-g)" xlink:href="#checkboxes-b"/><use stroke-width="4" mask="url(#checkboxes-h)" xlink:href="#checkboxes-c"/><path stroke-linecap="square" stroke-width="3" d="M26.5 38.5H132"/><use stroke-width="4" mask="url(#checkboxes-i)" xlink:href="#checkboxes-d"/><use stroke-width="4" mask="url(#checkboxes-j)" xlink:href="#checkboxes-e"/><path stroke-linecap="square" stroke-width="3" d="M26.5 68.5H166"/></g></g></g></g></svg>