<svg xmlns="http://www.w3.org/2000/svg" xmlns:xlink="http://www.w3.org/1999/xlink" width="446" height="44"><defs><rect id="file-upload-a" width="431" height="31" x="9" y="7" rx="3"/><mask id="file-upload-f" width="431" height="31" x="0" y="0" fill="#fff"><use xlink:href="#file-upload-a"/></mask><circle id="file-upload-b" cx="10" cy="8" r="4"/><mask id="file-upload-g" width="8" height="8" x="0" y="0" fill="#fff"><use xlink:href="#file-upload-b"/></mask><circle id="file-upload-c" cx="10" cy="37" r="4"/><mask id="file-upload-h" width="8" height="8" x="0" y="0" fill="#fff"><use xlink:href="#file-upload-c"/></mask><circle id="file-upload-d" cx="439" cy="37" r="4"/><mask id="file-upload-i" width="8" height="8" x="0" y="0" fill="#fff"><use xlink:href="#file-upload-d"/></mask><circle id="file-upload-e" cx="439" cy="8" r="4"/><mask id="file-upload-j" width="8" height="8" x="0" y="0" fill="#fff"><use xlink:href="#file-upload-e"/></mask></defs><g fill="none" fill-rule="evenodd" opacity=".1"><g stroke="#FFF"><g><g opacity=".8"><use stroke-width="4" mask="url(#file-upload-f)" opacity=".4" xlink:href="#file-upload-a"/><path stroke-opacity=".5" stroke-width="2" d="M10 0v44M439 2v42M340 2v42M0 8h446M0 37h444"/><use stroke-width="2" mask="url(#file-upload-g)" opacity=".4" xlink:href="#file-upload-b"/><use stroke-width="2" mask="url(#file-upload-h)" opacity=".4" xlink:href="#file-upload-c"/><use stroke-width="2" mask="url(#file-upload-i)" opacity=".4" xlink:href="#file-upload-d"/><use stroke-width="2" mask="url(#file-upload-j)" opacity=".4" xlink:href="#file-upload-e"/><path stroke-linecap="square" stroke-width="3" d="M21.5 22.5H94m258.5 0H415"/></g></g></g></g></svg>