<svg xmlns="http://www.w3.org/2000/svg" xmlns:xlink="http://www.w3.org/1999/xlink" width="317" height="238"><defs><rect id="inputs-a" width="301" height="31" x="7" y="5" rx="3"/><mask id="inputs-x" width="301" height="31" x="0" y="0" fill="#fff"><use xlink:href="#inputs-a"/></mask><circle id="inputs-b" cx="8" cy="6" r="4"/><mask id="inputs-y" width="8" height="8" x="0" y="0" fill="#fff"><use xlink:href="#inputs-b"/></mask><circle id="inputs-c" cx="8" cy="35" r="4"/><mask id="inputs-z" width="8" height="8" x="0" y="0" fill="#fff"><use xlink:href="#inputs-c"/></mask><circle id="inputs-d" cx="307" cy="35" r="4"/><mask id="inputs-A" width="8" height="8" x="0" y="0" fill="#fff"><use xlink:href="#inputs-d"/></mask><circle id="inputs-e" cx="307" cy="6" r="4"/><mask id="inputs-B" width="8" height="8" x="0" y="0" fill="#fff"><use xlink:href="#inputs-e"/></mask><rect id="inputs-f" width="301" height="31" x="6" y="6" rx="3"/><mask id="inputs-C" width="301" height="31" x="0" y="0" fill="#fff"><use xlink:href="#inputs-f"/></mask><circle id="inputs-g" cx="7" cy="7" r="4"/><mask id="inputs-D" width="8" height="8" x="0" y="0" fill="#fff"><use xlink:href="#inputs-g"/></mask><circle id="inputs-h" cx="7" cy="36" r="4"/><mask id="inputs-E" width="8" height="8" x="0" y="0" fill="#fff"><use xlink:href="#inputs-h"/></mask><circle id="inputs-i" cx="306" cy="36" r="4"/><mask id="inputs-F" width="8" height="8" x="0" y="0" fill="#fff"><use xlink:href="#inputs-i"/></mask><circle id="inputs-j" cx="306" cy="7" r="4"/><mask id="inputs-G" width="8" height="8" x="0" y="0" fill="#fff"><use xlink:href="#inputs-j"/></mask><rect id="inputs-k" width="301" height="31" x="7" y="7" rx="3"/><mask id="inputs-H" width="301" height="31" x="0" y="0" fill="#fff"><use xlink:href="#inputs-k"/></mask><mask id="inputs-I" width="305" height="35" x="-2" y="-2"><path fill="#fff" d="M5 5h305v35H5z"/><use xlink:href="#inputs-k"/></mask><circle id="inputs-l" cx="8" cy="8" r="4"/><mask id="inputs-J" width="8" height="8" x="0" y="0" fill="#fff"><use xlink:href="#inputs-l"/></mask><circle id="inputs-m" cx="8" cy="37" r="4"/><mask id="inputs-K" width="8" height="8" x="0" y="0" fill="#fff"><use xlink:href="#inputs-m"/></mask><circle id="inputs-n" cx="307" cy="37" r="4"/><mask id="inputs-L" width="8" height="8" x="0" y="0" fill="#fff"><use xlink:href="#inputs-n"/></mask><circle id="inputs-o" cx="307" cy="8" r="4"/><mask id="inputs-M" width="8" height="8" x="0" y="0" fill="#fff"><use xlink:href="#inputs-o"/></mask><rect id="inputs-p" width="301" height="31" x="8" y="7" rx="3"/><mask id="inputs-N" width="301" height="31" x="0" y="0" fill="#fff"><use xlink:href="#inputs-p"/></mask><circle id="inputs-q" cx="9" cy="8" r="4"/><mask id="inputs-O" width="8" height="8" x="0" y="0" fill="#fff"><use xlink:href="#inputs-q"/></mask><circle id="inputs-r" cx="9" cy="37" r="4"/><mask id="inputs-P" width="8" height="8" x="0" y="0" fill="#fff"><use xlink:href="#inputs-r"/></mask><circle id="inputs-s" cx="308" cy="37" r="4"/><mask id="inputs-Q" width="8" height="8" x="0" y="0" fill="#fff"><use xlink:href="#inputs-s"/></mask><circle id="inputs-t" cx="308" cy="8" r="4"/><mask id="inputs-R" width="8" height="8" x="0" y="0" fill="#fff"><use xlink:href="#inputs-t"/></mask><path id="inputs-u" d="M26 18c.55 0 1-.45 1-1v-1c0-.55-.45-1-1-1s-1 .45-1 1v1c0 .55.45 1 1 1zm3-2h-1v1c0 1.1-.9 2-2 2s-2-.9-2-2v-1h-3v1c0 1.1-.9 2-2 2s-2-.9-2-2v-1h-1c-.55 0-1 .45-1 1v12c0 .55.45 1 1 1h13c.55 0 1-.45 1-1V17c0-.55-.45-1-1-1zm-9 12h-3v-3h3v3zm0-4h-3v-3h3v3zm4 4h-3v-3h3v3zm0-4h-3v-3h3v3zm4 4h-3v-3h3v3zm0-4h-3v-3h3v3zm-9-6c.55 0 1-.45 1-1v-1c0-.55-.45-1-1-1s-1 .45-1 1v1c0 .55.45 1 1 1z"/><mask id="inputs-S" width="15" height="15" x="0" y="0" fill="#fff"><use xlink:href="#inputs-u"/></mask><rect id="inputs-v" width="301" height="31" x="4" rx="15"/><mask id="inputs-T" width="301" height="31" x="0" y="0" fill="#fff"><use xlink:href="#inputs-v"/></mask><path id="inputs-w" d="M26.56 20.44l-2.67-2.68A6.94 6.94 0 0 0 25 14c0-3.87-3.13-7-7-7s-7 3.13-7 7 3.13 7 7 7c1.39 0 2.68-.42 3.76-1.11l2.68 2.67a1.498 1.498 0 1 0 2.12-2.12zM18 19c-2.76 0-5-2.24-5-5s2.24-5 5-5 5 2.24 5 5-2.24 5-5 5z"/><mask id="inputs-U" width="16" height="16" x="0" y="0" fill="#fff"><use xlink:href="#inputs-w"/></mask></defs><g fill="none" fill-rule="evenodd" opacity=".1"><g stroke="#FFF"><g><g opacity=".8"><g><g transform="translate(1)"><use stroke-width="4" mask="url(#inputs-x)" opacity=".4" xlink:href="#inputs-a"/><path stroke-opacity=".5" stroke-width="2" d="M1 6h314M0 35h314M8 0v42M307 0v42"/><use stroke-width="2" mask="url(#inputs-y)" opacity=".4" xlink:href="#inputs-b"/><use stroke-width="2" mask="url(#inputs-z)" opacity=".4" xlink:href="#inputs-c"/><use stroke-width="2" mask="url(#inputs-A)" opacity=".4" xlink:href="#inputs-d"/><use stroke-width="2" mask="url(#inputs-B)" opacity=".4" xlink:href="#inputs-e"/><path stroke-linecap="square" stroke-width="3" d="M20 20h31.5"/></g><g transform="translate(2 49)"><use stroke-width="4" mask="url(#inputs-C)" opacity=".4" xlink:href="#inputs-f"/><path stroke-opacity=".5" stroke-width="2" d="M0 7h314M0 36h314M7 1v42M306 0v42"/><use stroke-width="2" mask="url(#inputs-D)" opacity=".4" xlink:href="#inputs-g"/><use stroke-width="2" mask="url(#inputs-E)" opacity=".4" xlink:href="#inputs-h"/><use stroke-width="2" mask="url(#inputs-F)" opacity=".4" xlink:href="#inputs-i"/><use stroke-width="2" mask="url(#inputs-G)" opacity=".4" xlink:href="#inputs-j"/><path stroke-linecap="square" stroke-width="3" d="M19 21h70.5"/></g><g transform="translate(1 99)"><g stroke-width="4" opacity=".4"><use mask="url(#inputs-H)" xlink:href="#inputs-k"/><use mask="url(#inputs-I)" xlink:href="#inputs-k"/></g><path stroke-opacity=".5" stroke-width="2" d="M2 8h314M0 37h314M8 2v42M307 0v42"/><use stroke-width="2" mask="url(#inputs-J)" opacity=".4" xlink:href="#inputs-l"/><use stroke-width="2" mask="url(#inputs-K)" opacity=".4" xlink:href="#inputs-m"/><use stroke-width="2" mask="url(#inputs-L)" opacity=".4" xlink:href="#inputs-n"/><use stroke-width="2" mask="url(#inputs-M)" opacity=".4" xlink:href="#inputs-o"/><path stroke-linecap="square" stroke-width="3" d="M20 22h81.5"/></g><g transform="translate(0 149)"><use stroke-width="4" mask="url(#inputs-N)" opacity=".4" xlink:href="#inputs-p"/><path stroke-opacity=".5" stroke-width="2" d="M2 8h314M0 37h314M9 2v42M308 0v42"/><use stroke-width="2" mask="url(#inputs-O)" opacity=".4" xlink:href="#inputs-q"/><use stroke-width="2" mask="url(#inputs-P)" opacity=".4" xlink:href="#inputs-r"/><use stroke-width="2" mask="url(#inputs-Q)" opacity=".4" xlink:href="#inputs-s"/><use stroke-width="2" mask="url(#inputs-R)" opacity=".4" xlink:href="#inputs-t"/><path stroke-linecap="square" stroke-width="3" d="M39 22h88.5"/><use stroke-width="4" mask="url(#inputs-S)" xlink:href="#inputs-u"/></g><g transform="translate(4 207)"><use stroke-width="4" mask="url(#inputs-T)" opacity=".4" xlink:href="#inputs-v"/><path stroke-opacity=".5" stroke-width="2" d="M0 1h310M2 30h306"/><path stroke-linecap="square" stroke-width="3" d="M32 15h73.5"/><use stroke-width="4" mask="url(#inputs-U)" xlink:href="#inputs-w"/></g></g></g></g></g></g></svg>