<svg xmlns="http://www.w3.org/2000/svg" xmlns:xlink="http://www.w3.org/1999/xlink" width="314" height="194"><defs><rect id="input-groups-a" width="301" height="31" x="6" y="5" rx="3"/><mask id="input-groups-w" width="301" height="31" x="0" y="0" fill="#fff"><use xlink:href="#input-groups-a"/></mask><circle id="input-groups-b" cx="7" cy="6" r="4"/><mask id="input-groups-x" width="8" height="8" x="0" y="0" fill="#fff"><use xlink:href="#input-groups-b"/></mask><circle id="input-groups-c" cx="7" cy="35" r="4"/><mask id="input-groups-y" width="8" height="8" x="0" y="0" fill="#fff"><use xlink:href="#input-groups-c"/></mask><circle id="input-groups-d" cx="306" cy="35" r="4"/><mask id="input-groups-z" width="8" height="8" x="0" y="0" fill="#fff"><use xlink:href="#input-groups-d"/></mask><circle id="input-groups-e" cx="306" cy="6" r="4"/><mask id="input-groups-A" width="8" height="8" x="0" y="0" fill="#fff"><use xlink:href="#input-groups-e"/></mask><rect id="input-groups-f" width="301" height="31" x="6" y="5" rx="3"/><mask id="input-groups-B" width="301" height="31" x="0" y="0" fill="#fff"><use xlink:href="#input-groups-f"/></mask><mask id="input-groups-C" width="305" height="35" x="-2" y="-2"><path fill="#fff" d="M4 3h305v35H4z"/><use xlink:href="#input-groups-f"/></mask><circle id="input-groups-g" cx="7" cy="6" r="4"/><mask id="input-groups-D" width="8" height="8" x="0" y="0" fill="#fff"><use xlink:href="#input-groups-g"/></mask><circle id="input-groups-h" cx="7" cy="35" r="4"/><mask id="input-groups-E" width="8" height="8" x="0" y="0" fill="#fff"><use xlink:href="#input-groups-h"/></mask><circle id="input-groups-i" cx="306" cy="35" r="4"/><mask id="input-groups-F" width="8" height="8" x="0" y="0" fill="#fff"><use xlink:href="#input-groups-i"/></mask><circle id="input-groups-j" cx="306" cy="6" r="4"/><mask id="input-groups-G" width="8" height="8" x="0" y="0" fill="#fff"><use xlink:href="#input-groups-j"/></mask><rect id="input-groups-k" width="301" height="31" x="6" y="5" rx="3"/><mask id="input-groups-H" width="301" height="31" x="0" y="0" fill="#fff"><use xlink:href="#input-groups-k"/></mask><mask id="input-groups-I" width="305" height="35" x="-2" y="-2"><path fill="#fff" d="M4 3h305v35H4z"/><use xlink:href="#input-groups-k"/></mask><path id="input-groups-l" d="M298.56 25.44l-2.67-2.68A6.94 6.94 0 0 0 297 19c0-3.87-3.13-7-7-7s-7 3.13-7 7 3.13 7 7 7c1.39 0 2.68-.42 3.76-1.11l2.68 2.67a1.498 1.498 0 1 0 2.12-2.12zM290 24c-2.76 0-5-2.24-5-5s2.24-5 5-5 5 2.24 5 5-2.24 5-5 5z"/><mask id="input-groups-J" width="16" height="16" x="0" y="0" fill="#fff"><use xlink:href="#input-groups-l"/></mask><circle id="input-groups-m" cx="7" cy="6" r="4"/><mask id="input-groups-K" width="8" height="8" x="0" y="0" fill="#fff"><use xlink:href="#input-groups-m"/></mask><circle id="input-groups-n" cx="7" cy="35" r="4"/><mask id="input-groups-L" width="8" height="8" x="0" y="0" fill="#fff"><use xlink:href="#input-groups-n"/></mask><circle id="input-groups-o" cx="306" cy="35" r="4"/><mask id="input-groups-M" width="8" height="8" x="0" y="0" fill="#fff"><use xlink:href="#input-groups-o"/></mask><circle id="input-groups-p" cx="306" cy="6" r="4"/><mask id="input-groups-N" width="8" height="8" x="0" y="0" fill="#fff"><use xlink:href="#input-groups-p"/></mask><rect id="input-groups-q" width="301" height="31" x="6" y="5" rx="3"/><mask id="input-groups-O" width="301" height="31" x="0" y="0" fill="#fff"><use xlink:href="#input-groups-q"/></mask><circle id="input-groups-r" cx="7" cy="6" r="4"/><mask id="input-groups-P" width="8" height="8" x="0" y="0" fill="#fff"><use xlink:href="#input-groups-r"/></mask><circle id="input-groups-s" cx="7" cy="35" r="4"/><mask id="input-groups-Q" width="8" height="8" x="0" y="0" fill="#fff"><use xlink:href="#input-groups-s"/></mask><circle id="input-groups-t" cx="306" cy="35" r="4"/><mask id="input-groups-R" width="8" height="8" x="0" y="0" fill="#fff"><use xlink:href="#input-groups-t"/></mask><circle id="input-groups-u" cx="306" cy="6" r="4"/><mask id="input-groups-S" width="8" height="8" x="0" y="0" fill="#fff"><use xlink:href="#input-groups-u"/></mask><path id="input-groups-v" d="M292.42 20l3.29-3.29a1.003 1.003 0 0 0-1.42-1.42L291 18.58l-3.29-3.29a1.003 1.003 0 0 0-1.42 1.42l3.29 3.29-3.29 3.29a1.003 1.003 0 0 0 1.42 1.42l3.29-3.29 3.29 3.29a1.003 1.003 0 0 0 1.42-1.42L292.42 20z"/><mask id="input-groups-T" width="10" height="10" x="0" y="0" fill="#fff"><use xlink:href="#input-groups-v"/></mask></defs><g fill="none" fill-rule="evenodd" opacity=".1"><g stroke="#FFF"><g><g opacity=".8"><g><g><use stroke-width="4" mask="url(#input-groups-w)" opacity=".4" xlink:href="#input-groups-a"/><path stroke-opacity=".5" stroke-width="2" d="M7 0v42M306 0v42M0 6h314M0 6h314M0 35h314"/><use stroke-width="2" mask="url(#input-groups-x)" opacity=".4" xlink:href="#input-groups-b"/><use stroke-width="2" mask="url(#input-groups-y)" opacity=".4" xlink:href="#input-groups-c"/><use stroke-width="2" mask="url(#input-groups-z)" opacity=".4" xlink:href="#input-groups-d"/><use stroke-width="2" mask="url(#input-groups-A)" opacity=".4" xlink:href="#input-groups-e"/><path stroke-linecap="square" stroke-width="3" d="M18.5 20.5H71"/></g><g transform="translate(0 50)"><g stroke-width="4" opacity=".4"><use mask="url(#input-groups-B)" xlink:href="#input-groups-f"/><use mask="url(#input-groups-C)" xlink:href="#input-groups-f"/></g><path stroke-opacity=".5" stroke-width="2" d="M7 0v42M306 0v42M0 6h314M0 35h314"/><use stroke-width="2" mask="url(#input-groups-D)" opacity=".4" xlink:href="#input-groups-g"/><use stroke-width="2" mask="url(#input-groups-E)" opacity=".4" xlink:href="#input-groups-h"/><use stroke-width="2" mask="url(#input-groups-F)" opacity=".4" xlink:href="#input-groups-i"/><use stroke-width="2" mask="url(#input-groups-G)" opacity=".4" xlink:href="#input-groups-j"/><path stroke-linecap="square" stroke-width="3" d="M18.5 20.5H71"/></g><g transform="translate(0 101)"><g stroke-width="4" opacity=".4"><use mask="url(#input-groups-H)" xlink:href="#input-groups-k"/><use mask="url(#input-groups-I)" xlink:href="#input-groups-k"/></g><path stroke-opacity=".5" stroke-width="2" d="M306 0v42M7 0v42M0 6h314M0 35h314"/><use stroke-width="4" mask="url(#input-groups-J)" xlink:href="#input-groups-l"/><use stroke-width="2" mask="url(#input-groups-K)" opacity=".4" xlink:href="#input-groups-m"/><use stroke-width="2" mask="url(#input-groups-L)" opacity=".4" xlink:href="#input-groups-n"/><use stroke-width="2" mask="url(#input-groups-M)" opacity=".4" xlink:href="#input-groups-o"/><use stroke-width="2" mask="url(#input-groups-N)" opacity=".4" xlink:href="#input-groups-p"/><path stroke-linecap="square" stroke-width="3" d="M18.5 20.5H111"/></g><g transform="translate(0 152)"><use stroke-width="4" mask="url(#input-groups-O)" opacity=".4" xlink:href="#input-groups-q"/><path stroke-opacity=".5" stroke-width="2" d="M306 0v42M0 6h314M7 0v42m-7-7h314"/><use stroke-width="2" mask="url(#input-groups-P)" opacity=".4" xlink:href="#input-groups-r"/><use stroke-width="2" mask="url(#input-groups-Q)" opacity=".4" xlink:href="#input-groups-s"/><use stroke-width="2" mask="url(#input-groups-R)" opacity=".4" xlink:href="#input-groups-t"/><use stroke-width="2" mask="url(#input-groups-S)" opacity=".4" xlink:href="#input-groups-u"/><use stroke-width="4" mask="url(#input-groups-T)" xlink:href="#input-groups-v"/><path stroke-linecap="square" stroke-width="3" d="M18.5 20.5H111"/></g></g></g></g></g></g></svg>