<svg xmlns="http://www.w3.org/2000/svg" xmlns:xlink="http://www.w3.org/1999/xlink" width="315" height="104"><defs><rect id="labels-a" width="301" height="31" x="7" y="16" rx="3"/><mask id="labels-k" width="301" height="31" x="0" y="0" fill="#fff"><use xlink:href="#labels-a"/></mask><circle id="labels-b" cx="8" cy="17" r="4"/><mask id="labels-l" width="8" height="8" x="0" y="0" fill="#fff"><use xlink:href="#labels-b"/></mask><circle id="labels-c" cx="8" cy="46" r="4"/><mask id="labels-m" width="8" height="8" x="0" y="0" fill="#fff"><use xlink:href="#labels-c"/></mask><circle id="labels-d" cx="307" cy="46" r="4"/><mask id="labels-n" width="8" height="8" x="0" y="0" fill="#fff"><use xlink:href="#labels-d"/></mask><circle id="labels-e" cx="307" cy="17" r="4"/><mask id="labels-o" width="8" height="8" x="0" y="0" fill="#fff"><use xlink:href="#labels-e"/></mask><rect id="labels-f" width="181" height="31" x="117" y="5" rx="3"/><mask id="labels-p" width="181" height="31" x="0" y="0" fill="#fff"><use xlink:href="#labels-f"/></mask><circle id="labels-g" cx="118" cy="6" r="4"/><mask id="labels-q" width="8" height="8" x="0" y="0" fill="#fff"><use xlink:href="#labels-g"/></mask><circle id="labels-h" cx="118" cy="35" r="4"/><mask id="labels-r" width="8" height="8" x="0" y="0" fill="#fff"><use xlink:href="#labels-h"/></mask><circle id="labels-i" cx="297" cy="35" r="4"/><mask id="labels-s" width="8" height="8" x="0" y="0" fill="#fff"><use xlink:href="#labels-i"/></mask><circle id="labels-j" cx="297" cy="6" r="4"/><mask id="labels-t" width="8" height="8" x="0" y="0" fill="#fff"><use xlink:href="#labels-j"/></mask></defs><g fill="none" fill-rule="evenodd" opacity=".1"><g stroke="#FFF"><g><g opacity=".8"><g transform="translate(0 1)"><use stroke-width="4" mask="url(#labels-k)" opacity=".4" xlink:href="#labels-a"/><path stroke-opacity=".5" stroke-width="2" d="M1 17h314M0 46h314M8 11v42m299-42v42"/><use stroke-width="2" mask="url(#labels-l)" opacity=".4" xlink:href="#labels-b"/><use stroke-width="2" mask="url(#labels-m)" opacity=".4" xlink:href="#labels-c"/><use stroke-width="2" mask="url(#labels-n)" opacity=".4" xlink:href="#labels-d"/><use stroke-width="2" mask="url(#labels-o)" opacity=".4" xlink:href="#labels-e"/><path stroke-linecap="square" stroke-width="3" d="M9 1h45M19 31h35"/></g><g transform="translate(10 62)"><use stroke-width="4" mask="url(#labels-p)" opacity=".4" xlink:href="#labels-f"/><path stroke-opacity=".5" stroke-width="2" d="M111 6h194M110 35h194M118 0v42M297 0v42"/><use stroke-width="2" mask="url(#labels-q)" opacity=".4" xlink:href="#labels-g"/><use stroke-width="2" mask="url(#labels-r)" opacity=".4" xlink:href="#labels-h"/><use stroke-width="2" mask="url(#labels-s)" opacity=".4" xlink:href="#labels-i"/><use stroke-width="2" mask="url(#labels-t)" opacity=".4" xlink:href="#labels-j"/><path stroke-linecap="square" stroke-width="3" d="M0 20h97m32 0h35"/></g></g></g></g></g></svg>