<svg xmlns="http://www.w3.org/2000/svg" xmlns:xlink="http://www.w3.org/1999/xlink" width="315" height="92"><defs><rect id="select-menus-a" width="301" height="31" x="7" y="5" rx="3"/><mask id="select-menus-m" width="301" height="31" x="0" y="0" fill="#fff"><use xlink:href="#select-menus-a"/></mask><circle id="select-menus-b" cx="8" cy="6" r="4"/><mask id="select-menus-n" width="8" height="8" x="0" y="0" fill="#fff"><use xlink:href="#select-menus-b"/></mask><circle id="select-menus-c" cx="8" cy="35" r="4"/><mask id="select-menus-o" width="8" height="8" x="0" y="0" fill="#fff"><use xlink:href="#select-menus-c"/></mask><circle id="select-menus-d" cx="307" cy="35" r="4"/><mask id="select-menus-p" width="8" height="8" x="0" y="0" fill="#fff"><use xlink:href="#select-menus-d"/></mask><circle id="select-menus-e" cx="307" cy="6" r="4"/><mask id="select-menus-q" width="8" height="8" x="0" y="0" fill="#fff"><use xlink:href="#select-menus-e"/></mask><path id="select-menus-f" d="M295 18h-6a1.003 1.003 0 0 0-.71 1.71l3 3c.18.18.43.29.71.29.28 0 .53-.11.71-.29l3-3A1.003 1.003 0 0 0 295 18z"/><mask id="select-menus-r" width="8" height="5" x="0" y="0" fill="#fff"><use xlink:href="#select-menus-f"/></mask><rect id="select-menus-g" width="301" height="31" x="7" y="5" rx="3"/><mask id="select-menus-s" width="301" height="31" x="0" y="0" fill="#fff"><use xlink:href="#select-menus-g"/></mask><mask id="select-menus-t" width="305" height="35" x="-2" y="-2"><path fill="#fff" d="M5 3h305v35H5z"/><use xlink:href="#select-menus-g"/></mask><circle id="select-menus-h" cx="8" cy="6" r="4"/><mask id="select-menus-u" width="8" height="8" x="0" y="0" fill="#fff"><use xlink:href="#select-menus-h"/></mask><circle id="select-menus-i" cx="8" cy="35" r="4"/><mask id="select-menus-v" width="8" height="8" x="0" y="0" fill="#fff"><use xlink:href="#select-menus-i"/></mask><circle id="select-menus-j" cx="307" cy="35" r="4"/><mask id="select-menus-w" width="8" height="8" x="0" y="0" fill="#fff"><use xlink:href="#select-menus-j"/></mask><circle id="select-menus-k" cx="307" cy="6" r="4"/><mask id="select-menus-x" width="8" height="8" x="0" y="0" fill="#fff"><use xlink:href="#select-menus-k"/></mask><path id="select-menus-l" d="M295 18h-6a1.003 1.003 0 0 0-.71 1.71l3 3c.18.18.43.29.71.29.28 0 .53-.11.71-.29l3-3A1.003 1.003 0 0 0 295 18z"/><mask id="select-menus-y" width="8" height="5" x="0" y="0" fill="#fff"><use xlink:href="#select-menus-l"/></mask></defs><g fill="none" fill-rule="evenodd" opacity=".1"><g stroke="#FFF"><g><g opacity=".8"><g><use stroke-width="4" mask="url(#select-menus-m)" opacity=".4" xlink:href="#select-menus-a"/><path stroke-opacity=".5" stroke-width="2" d="M1 6h314M0 35h314M8 0v42M307 0v42"/><use stroke-width="2" mask="url(#select-menus-n)" opacity=".4" xlink:href="#select-menus-b"/><use stroke-width="2" mask="url(#select-menus-o)" opacity=".4" xlink:href="#select-menus-c"/><use stroke-width="2" mask="url(#select-menus-p)" opacity=".4" xlink:href="#select-menus-d"/><use stroke-width="2" mask="url(#select-menus-q)" opacity=".4" xlink:href="#select-menus-e"/><path stroke-linecap="square" stroke-width="3" d="M20 20h85"/><use stroke-width="4" mask="url(#select-menus-r)" xlink:href="#select-menus-f"/></g><g transform="translate(0 50)"><g stroke-width="4" opacity=".4"><use mask="url(#select-menus-s)" xlink:href="#select-menus-g"/><use mask="url(#select-menus-t)" xlink:href="#select-menus-g"/></g><path stroke-opacity=".5" stroke-width="2" d="M1 6h314M0 35h314M8 0v42M307 0v42"/><use stroke-width="2" mask="url(#select-menus-u)" opacity=".4" xlink:href="#select-menus-h"/><use stroke-width="2" mask="url(#select-menus-v)" opacity=".4" xlink:href="#select-menus-i"/><use stroke-width="2" mask="url(#select-menus-w)" opacity=".4" xlink:href="#select-menus-j"/><use stroke-width="2" mask="url(#select-menus-x)" opacity=".4" xlink:href="#select-menus-k"/><path stroke-linecap="square" stroke-width="3" d="M20 20h85"/><use stroke-width="4" mask="url(#select-menus-y)" xlink:href="#select-menus-l"/></g></g></g></g></g></svg>