<svg xmlns="http://www.w3.org/2000/svg" xmlns:xlink="http://www.w3.org/1999/xlink" width="317" height="70"><defs><rect id="sliders-a" width="74" height="9" x="7" y="6" rx="4.5"/><mask id="sliders-q" width="74" height="9" x="0" y="0" fill="#fff"><use xlink:href="#sliders-a"/></mask><path id="sliders-b" d="M148 6h156.505A4.5 4.5 0 0 1 309 10.5c0 2.485-2.006 4.5-4.495 4.5H148V6z"/><mask id="sliders-r" width="161" height="9" x="0" y="0" fill="#fff"><use xlink:href="#sliders-b"/></mask><circle id="sliders-c" cx="8" cy="7" r="4"/><mask id="sliders-s" width="8" height="8" x="0" y="0" fill="#fff"><use xlink:href="#sliders-c"/></mask><circle id="sliders-d" cx="8" cy="14" r="4"/><mask id="sliders-t" width="8" height="8" x="0" y="0" fill="#fff"><use xlink:href="#sliders-d"/></mask><circle id="sliders-e" cx="307" cy="14" r="4"/><mask id="sliders-u" width="8" height="8" x="0" y="0" fill="#fff"><use xlink:href="#sliders-e"/></mask><circle id="sliders-f" cx="307" cy="7" r="4"/><mask id="sliders-v" width="8" height="8" x="0" y="0" fill="#fff"><use xlink:href="#sliders-f"/></mask><path id="sliders-g" d="M79 .977h19v19H79z"/><mask id="sliders-w" width="19" height="19" x="0" y="0" fill="#fff"><use xlink:href="#sliders-g"/></mask><path id="sliders-h" d="M131 .977h19v19h-19z"/><mask id="sliders-x" width="19" height="19" x="0" y="0" fill="#fff"><use xlink:href="#sliders-h"/></mask><rect id="sliders-i" width="73" height="9" x="7" y="5" rx="4.5"/><mask id="sliders-y" width="73" height="9" x="0" y="0" fill="#fff"><use xlink:href="#sliders-i"/></mask><path id="sliders-j" d="M237 5h66.505A4.5 4.5 0 0 1 308 9.5c0 2.485-2.01 4.5-4.495 4.5H237V5z"/><mask id="sliders-z" width="71" height="9" x="0" y="0" fill="#fff"><use xlink:href="#sliders-j"/></mask><circle id="sliders-k" cx="8" cy="6" r="4"/><mask id="sliders-A" width="8" height="8" x="0" y="0" fill="#fff"><use xlink:href="#sliders-k"/></mask><circle id="sliders-l" cx="8" cy="13" r="4"/><mask id="sliders-B" width="8" height="8" x="0" y="0" fill="#fff"><use xlink:href="#sliders-l"/></mask><circle id="sliders-m" cx="307" cy="14" r="4"/><mask id="sliders-C" width="8" height="8" x="0" y="0" fill="#fff"><use xlink:href="#sliders-m"/></mask><circle id="sliders-n" cx="307" cy="6" r="4"/><mask id="sliders-D" width="8" height="8" x="0" y="0" fill="#fff"><use xlink:href="#sliders-n"/></mask><path id="sliders-o" d="M78 .977h19v19H78z"/><mask id="sliders-E" width="19" height="19" x="0" y="0" fill="#fff"><use xlink:href="#sliders-o"/></mask><path id="sliders-p" d="M219 .977h19v19h-19z"/><mask id="sliders-F" width="19" height="19" x="0" y="0" fill="#fff"><use xlink:href="#sliders-p"/></mask></defs><g fill="none" fill-rule="evenodd" opacity=".1"><g stroke="#FFF"><g><g opacity=".8"><g><use stroke-width="4" mask="url(#sliders-q)" opacity=".4" xlink:href="#sliders-a"/><use stroke-width="4" mask="url(#sliders-r)" opacity=".4" xlink:href="#sliders-b"/><path stroke-opacity=".5" stroke-width="2" d="M1 7h79m70 0h162M0 14h80m70 0h167M8 1v20M307 1v20"/><use stroke-width="2" mask="url(#sliders-s)" opacity=".4" xlink:href="#sliders-c"/><use stroke-width="2" mask="url(#sliders-t)" opacity=".4" xlink:href="#sliders-d"/><use stroke-width="2" mask="url(#sliders-u)" opacity=".4" xlink:href="#sliders-e"/><use stroke-width="2" mask="url(#sliders-v)" opacity=".4" xlink:href="#sliders-f"/><use stroke-width="4" mask="url(#sliders-w)" xlink:href="#sliders-g"/><use stroke-width="4" mask="url(#sliders-x)" xlink:href="#sliders-h"/><path stroke-linecap="square" stroke-width="2" d="M98 7h32m-32 6h32m-32.339-1.161l2.679-3.679m2.321 3.679l2.679-3.679m2.321 3.679l2.679-3.679m2.321 3.679l2.679-3.679m2.321 3.679l2.679-3.679m2.321 3.679l2.679-3.679m2.321 3.679l2.679-3.679"/></g><g transform="translate(0 41)"><use stroke-width="4" mask="url(#sliders-y)" opacity=".4" xlink:href="#sliders-i"/><use stroke-width="4" mask="url(#sliders-z)" opacity=".4" xlink:href="#sliders-j"/><path stroke-opacity=".5" stroke-width="2" d="M1 6h78m159 0h78M0 13h79m159 0h79M8 0v19M307 0v18"/><use stroke-width="2" mask="url(#sliders-A)" opacity=".4" xlink:href="#sliders-k"/><use stroke-width="2" mask="url(#sliders-B)" opacity=".4" xlink:href="#sliders-l"/><use stroke-width="2" mask="url(#sliders-C)" opacity=".4" xlink:href="#sliders-m"/><use stroke-width="2" mask="url(#sliders-D)" opacity=".4" xlink:href="#sliders-n"/><use stroke-width="4" mask="url(#sliders-E)" xlink:href="#sliders-o"/><use stroke-width="4" mask="url(#sliders-F)" xlink:href="#sliders-p"/><path stroke-linecap="square" stroke-width="2" d="M23 28H13m80 0H83m80 0h-10m80 0h-10m80 0h-10M98 6h121M98 12h121M96.661 10.839L99.34 7.16m2.321 3.679l2.679-3.679m2.321 3.679l2.679-3.679m2.321 3.679l2.679-3.679m2.321 3.679l2.679-3.679m2.321 3.679l2.679-3.679m2.321 3.679l2.679-3.679m2.321 3.679l2.679-3.679m2.321 3.679l2.679-3.679m2.321 3.679l2.679-3.679m2.321 3.679l2.679-3.679m2.321 3.679l2.679-3.679m2.321 3.679l2.679-3.679m2.321 3.679l2.679-3.679m2.321 3.679l2.679-3.679m2.321 3.679l2.679-3.679m2.321 3.679l2.679-3.679m2.321 3.679l2.679-3.679m2.321 3.679l2.679-3.679m2.321 3.679l2.679-3.679m2.321 3.679l2.679-3.679m2.321 3.679l2.679-3.679m2.321 3.679l2.679-3.679m2.321 3.679l2.679-3.679m2.321 3.679l2.679-3.679"/></g></g></g></g></g></svg>