<svg xmlns="http://www.w3.org/2000/svg" xmlns:xlink="http://www.w3.org/1999/xlink" width="51" height="46"><defs><circle id="switches-a" cx="9" cy="8" r="5"/><mask id="switches-e" width="10" height="10" x="0" y="0" fill="#fff"><use xlink:href="#switches-a"/></mask><path id="switches-b" d="M0 8c0-4.418 3.588-8 7.995-8h10.01C22.42 0 26 3.59 26 8c0 4.418-3.588 8-7.995 8H7.995C3.58 16 0 12.41 0 8z"/><mask id="switches-f" width="26" height="16" x="0" y="0" fill="#fff"><use xlink:href="#switches-b"/></mask><circle id="switches-c" cx="18" cy="38" r="5"/><mask id="switches-g" width="10" height="10" x="0" y="0" fill="#fff"><use xlink:href="#switches-c"/></mask><path id="switches-d" d="M0 38c0-4.418 3.588-8 7.995-8h10.01C22.42 30 26 33.59 26 38c0 4.418-3.588 8-7.995 8H7.995C3.58 46 0 42.41 0 38z"/><mask id="switches-h" width="26" height="16" x="0" y="0" fill="#fff"><use xlink:href="#switches-d"/></mask></defs><g fill="none" fill-rule="evenodd" opacity=".1"><g stroke="#FFF"><g><g><path stroke-linecap="square" stroke-width="3" d="M34.5 7.5H49"/><use stroke-width="4" mask="url(#switches-e)" xlink:href="#switches-a"/><use stroke-width="4" mask="url(#switches-f)" xlink:href="#switches-b"/><use stroke-width="4" mask="url(#switches-g)" xlink:href="#switches-c"/><use stroke-width="4" mask="url(#switches-h)" xlink:href="#switches-d"/><path stroke-linecap="square" stroke-width="3" d="M34.5 37.5H46"/></g></g></g></g></svg>