<svg xmlns="http://www.w3.org/2000/svg" xmlns:xlink="http://www.w3.org/1999/xlink" width="215" height="154"><defs><rect id="time-selections-a" width="201" height="31" x="7" y="16" rx="3"/><mask id="time-selections-M" width="201" height="31" x="0" y="0" fill="#fff"><use xlink:href="#time-selections-a"/></mask><circle id="time-selections-b" cx="8" cy="17" r="4"/><mask id="time-selections-N" width="8" height="8" x="0" y="0" fill="#fff"><use xlink:href="#time-selections-b"/></mask><circle id="time-selections-c" cx="8" cy="46" r="4"/><mask id="time-selections-O" width="8" height="8" x="0" y="0" fill="#fff"><use xlink:href="#time-selections-c"/></mask><circle id="time-selections-d" cx="207" cy="46" r="4"/><mask id="time-selections-P" width="8" height="8" x="0" y="0" fill="#fff"><use xlink:href="#time-selections-d"/></mask><circle id="time-selections-e" cx="207" cy="17" r="4"/><mask id="time-selections-Q" width="8" height="8" x="0" y="0" fill="#fff"><use xlink:href="#time-selections-e"/></mask><path id="time-selections-f" d="M46 28h3v3h-3z"/><mask id="time-selections-R" width="3" height="3" x="0" y="0" fill="#fff"><use xlink:href="#time-selections-f"/></mask><path id="time-selections-g" d="M46 34h3v3h-3z"/><mask id="time-selections-S" width="3" height="3" x="0" y="0" fill="#fff"><use xlink:href="#time-selections-g"/></mask><path id="time-selections-h" d="M83 28h3v3h-3z"/><mask id="time-selections-T" width="3" height="3" x="0" y="0" fill="#fff"><use xlink:href="#time-selections-h"/></mask><path id="time-selections-i" d="M83 34h3v3h-3z"/><mask id="time-selections-U" width="3" height="3" x="0" y="0" fill="#fff"><use xlink:href="#time-selections-i"/></mask><path id="time-selections-j" d="M121 28h3v3h-3z"/><mask id="time-selections-V" width="3" height="3" x="0" y="0" fill="#fff"><use xlink:href="#time-selections-j"/></mask><path id="time-selections-k" d="M121 34h3v3h-3z"/><mask id="time-selections-W" width="3" height="3" x="0" y="0" fill="#fff"><use xlink:href="#time-selections-k"/></mask><path id="time-selections-l" d="M159 28h3v3h-3z"/><mask id="time-selections-X" width="3" height="3" x="0" y="0" fill="#fff"><use xlink:href="#time-selections-l"/></mask><path id="time-selections-m" d="M159 34h3v3h-3z"/><mask id="time-selections-Y" width="3" height="3" x="0" y="0" fill="#fff"><use xlink:href="#time-selections-m"/></mask><path id="time-selections-n" d="M34 58c-.28 0-.53.11-.71.29L30 61.58l-3.29-3.29a1.003 1.003 0 0 0-1.42 1.42l4 4c.18.18.43.29.71.29.28 0 .53-.11.71-.29l4-4A1.003 1.003 0 0 0 34 58z"/><mask id="time-selections-Z" width="10" height="6" x="0" y="0" fill="#fff"><use xlink:href="#time-selections-n"/></mask><path id="time-selections-o" d="M72 58c-.28 0-.53.11-.71.29L68 61.58l-3.29-3.29a1.003 1.003 0 0 0-1.42 1.42l4 4c.18.18.43.29.71.29.28 0 .53-.11.71-.29l4-4A1.003 1.003 0 0 0 72 58z"/><mask id="time-selections-aa" width="10" height="6" x="0" y="0" fill="#fff"><use xlink:href="#time-selections-o"/></mask><path id="time-selections-p" d="M110 58c-.28 0-.53.11-.71.29L106 61.58l-3.29-3.29a1.003 1.003 0 0 0-1.42 1.42l4 4c.18.18.43.29.71.29.28 0 .53-.11.71-.29l4-4A1.003 1.003 0 0 0 110 58z"/><mask id="time-selections-ab" width="10" height="6" x="0" y="0" fill="#fff"><use xlink:href="#time-selections-p"/></mask><path id="time-selections-q" d="M147 58c-.28 0-.53.11-.71.29L143 61.58l-3.29-3.29a1.003 1.003 0 0 0-1.42 1.42l4 4c.18.18.43.29.71.29.28 0 .53-.11.71-.29l4-4A1.003 1.003 0 0 0 147 58z"/><mask id="time-selections-ac" width="10" height="6" x="0" y="0" fill="#fff"><use xlink:href="#time-selections-q"/></mask><path id="time-selections-r" d="M185 58c-.28 0-.53.11-.71.29L181 61.58l-3.29-3.29a1.003 1.003 0 0 0-1.42 1.42l4 4c.18.18.43.29.71.29.28 0 .53-.11.71-.29l4-4A1.003 1.003 0 0 0 185 58z"/><mask id="time-selections-ad" width="10" height="6" x="0" y="0" fill="#fff"><use xlink:href="#time-selections-r"/></mask><path id="time-selections-s" d="M33.29.29L30 3.58 26.71.29a1.003 1.003 0 0 0-1.42 1.42l4 4c.18.18.43.29.71.29.28 0 .53-.11.71-.29l4-4A1.003 1.003 0 0 0 33.29.29z"/><mask id="time-selections-ae" width="10" height="6" x="0" y="0" fill="#fff"><use xlink:href="#time-selections-s"/></mask><path id="time-selections-t" d="M71.29.29L68 3.58 64.71.29a1.003 1.003 0 0 0-1.42 1.42l4 4c.18.18.43.29.71.29.28 0 .53-.11.71-.29l4-4A1.003 1.003 0 0 0 71.29.29z"/><mask id="time-selections-af" width="10" height="6" x="0" y="0" fill="#fff"><use xlink:href="#time-selections-t"/></mask><path id="time-selections-u" d="M109.29.29L106 3.58 102.71.29a1.003 1.003 0 0 0-1.42 1.42l4 4c.18.18.43.29.71.29.28 0 .53-.11.71-.29l4-4a1.003 1.003 0 0 0-1.42-1.42z"/><mask id="time-selections-ag" width="10" height="6" x="0" y="0" fill="#fff"><use xlink:href="#time-selections-u"/></mask><path id="time-selections-v" d="M146.29.29L143 3.58 139.71.29a1.003 1.003 0 0 0-1.42 1.42l4 4c.18.18.43.29.71.29.28 0 .53-.11.71-.29l4-4a1.003 1.003 0 0 0-1.42-1.42z"/><mask id="time-selections-ah" width="10" height="6" x="0" y="0" fill="#fff"><use xlink:href="#time-selections-v"/></mask><path id="time-selections-w" d="M184.29.29L181 3.58 177.71.29a1.003 1.003 0 0 0-1.42 1.42l4 4c.18.18.43.29.71.29.28 0 .53-.11.71-.29l4-4a1.003 1.003 0 0 0-1.42-1.42z"/><mask id="time-selections-ai" width="10" height="6" x="0" y="0" fill="#fff"><use xlink:href="#time-selections-w"/></mask><rect id="time-selections-x" width="121" height="31" x="7" y="16" rx="3"/><mask id="time-selections-aj" width="121" height="31" x="0" y="0" fill="#fff"><use xlink:href="#time-selections-x"/></mask><circle id="time-selections-y" cx="8" cy="17" r="4"/><mask id="time-selections-ak" width="8" height="8" x="0" y="0" fill="#fff"><use xlink:href="#time-selections-y"/></mask><circle id="time-selections-z" cx="8" cy="46" r="4"/><mask id="time-selections-al" width="8" height="8" x="0" y="0" fill="#fff"><use xlink:href="#time-selections-z"/></mask><circle id="time-selections-A" cx="127" cy="46" r="4"/><mask id="time-selections-am" width="8" height="8" x="0" y="0" fill="#fff"><use xlink:href="#time-selections-A"/></mask><circle id="time-selections-B" cx="127" cy="17" r="4"/><mask id="time-selections-an" width="8" height="8" x="0" y="0" fill="#fff"><use xlink:href="#time-selections-B"/></mask><path id="time-selections-C" d="M46 28h3v3h-3z"/><mask id="time-selections-ao" width="3" height="3" x="0" y="0" fill="#fff"><use xlink:href="#time-selections-C"/></mask><path id="time-selections-D" d="M46 34h3v3h-3z"/><mask id="time-selections-ap" width="3" height="3" x="0" y="0" fill="#fff"><use xlink:href="#time-selections-D"/></mask><path id="time-selections-E" d="M83 28h3v3h-3z"/><mask id="time-selections-aq" width="3" height="3" x="0" y="0" fill="#fff"><use xlink:href="#time-selections-E"/></mask><path id="time-selections-F" d="M83 34h3v3h-3z"/><mask id="time-selections-ar" width="3" height="3" x="0" y="0" fill="#fff"><use xlink:href="#time-selections-F"/></mask><path id="time-selections-G" d="M34 58c-.28 0-.53.11-.71.29L30 61.58l-3.29-3.29a1.003 1.003 0 0 0-1.42 1.42l4 4c.18.18.43.29.71.29.28 0 .53-.11.71-.29l4-4A1.003 1.003 0 0 0 34 58z"/><mask id="time-selections-as" width="10" height="6" x="0" y="0" fill="#fff"><use xlink:href="#time-selections-G"/></mask><path id="time-selections-H" d="M72 58c-.28 0-.53.11-.71.29L68 61.58l-3.29-3.29a1.003 1.003 0 0 0-1.42 1.42l4 4c.18.18.43.29.71.29.28 0 .53-.11.71-.29l4-4A1.003 1.003 0 0 0 72 58z"/><mask id="time-selections-at" width="10" height="6" x="0" y="0" fill="#fff"><use xlink:href="#time-selections-H"/></mask><path id="time-selections-I" d="M110 58c-.28 0-.53.11-.71.29L106 61.58l-3.29-3.29a1.003 1.003 0 0 0-1.42 1.42l4 4c.18.18.43.29.71.29.28 0 .53-.11.71-.29l4-4A1.003 1.003 0 0 0 110 58z"/><mask id="time-selections-au" width="10" height="6" x="0" y="0" fill="#fff"><use xlink:href="#time-selections-I"/></mask><path id="time-selections-J" d="M33.29.29L30 3.58 26.71.29a1.003 1.003 0 0 0-1.42 1.42l4 4c.18.18.43.29.71.29.28 0 .53-.11.71-.29l4-4A1.003 1.003 0 0 0 33.29.29z"/><mask id="time-selections-av" width="10" height="6" x="0" y="0" fill="#fff"><use xlink:href="#time-selections-J"/></mask><path id="time-selections-K" d="M71.29.29L68 3.58 64.71.29a1.003 1.003 0 0 0-1.42 1.42l4 4c.18.18.43.29.71.29.28 0 .53-.11.71-.29l4-4A1.003 1.003 0 0 0 71.29.29z"/><mask id="time-selections-aw" width="10" height="6" x="0" y="0" fill="#fff"><use xlink:href="#time-selections-K"/></mask><path id="time-selections-L" d="M109.29.29L106 3.58 102.71.29a1.003 1.003 0 0 0-1.42 1.42l4 4c.18.18.43.29.71.29.28 0 .53-.11.71-.29l4-4a1.003 1.003 0 0 0-1.42-1.42z"/><mask id="time-selections-ax" width="10" height="6" x="0" y="0" fill="#fff"><use xlink:href="#time-selections-L"/></mask></defs><g fill="none" fill-rule="evenodd" opacity=".1"><g stroke="#FFF"><g><g opacity=".8"><g><use stroke-width="4" mask="url(#time-selections-M)" opacity=".4" xlink:href="#time-selections-a"/><path stroke-opacity=".5" stroke-width="2" d="M1 17h214M0 46h214M8 11v42m199-42v42"/><use stroke-width="2" mask="url(#time-selections-N)" opacity=".4" xlink:href="#time-selections-b"/><use stroke-width="2" mask="url(#time-selections-O)" opacity=".4" xlink:href="#time-selections-c"/><use stroke-width="2" mask="url(#time-selections-P)" opacity=".4" xlink:href="#time-selections-d"/><use stroke-width="2" mask="url(#time-selections-Q)" opacity=".4" xlink:href="#time-selections-e"/><path stroke-linecap="square" stroke-width="2" d="M23 32h15"/><use stroke-linecap="square" stroke-width="6" mask="url(#time-selections-R)" xlink:href="#time-selections-f"/><use stroke-linecap="square" stroke-width="6" mask="url(#time-selections-S)" xlink:href="#time-selections-g"/><path stroke-linecap="square" stroke-width="2" d="M60 32h15"/><use stroke-linecap="square" stroke-width="6" mask="url(#time-selections-T)" xlink:href="#time-selections-h"/><use stroke-linecap="square" stroke-width="6" mask="url(#time-selections-U)" xlink:href="#time-selections-i"/><path stroke-linecap="square" stroke-width="2" d="M98 32h15"/><use stroke-linecap="square" stroke-width="6" mask="url(#time-selections-V)" xlink:href="#time-selections-j"/><use stroke-linecap="square" stroke-width="6" mask="url(#time-selections-W)" xlink:href="#time-selections-k"/><path stroke-linecap="square" stroke-width="2" d="M136 32h15"/><use stroke-linecap="square" stroke-width="6" mask="url(#time-selections-X)" xlink:href="#time-selections-l"/><use stroke-linecap="square" stroke-width="6" mask="url(#time-selections-Y)" xlink:href="#time-selections-m"/><path stroke-linecap="square" stroke-width="2" d="M174 32h15"/><use stroke-width="4" mask="url(#time-selections-Z)" xlink:href="#time-selections-n"/><use stroke-width="4" mask="url(#time-selections-aa)" xlink:href="#time-selections-o"/><use stroke-width="4" mask="url(#time-selections-ab)" xlink:href="#time-selections-p"/><use stroke-width="4" mask="url(#time-selections-ac)" xlink:href="#time-selections-q"/><use stroke-width="4" mask="url(#time-selections-ad)" xlink:href="#time-selections-r"/><use stroke-width="4" mask="url(#time-selections-ae)" transform="rotate(-180 30 3)" xlink:href="#time-selections-s"/><use stroke-width="4" mask="url(#time-selections-af)" transform="rotate(-180 68 3)" xlink:href="#time-selections-t"/><use stroke-width="4" mask="url(#time-selections-ag)" transform="rotate(-180 106 3)" xlink:href="#time-selections-u"/><use stroke-width="4" mask="url(#time-selections-ah)" transform="rotate(-180 143 3)" xlink:href="#time-selections-v"/><use stroke-width="4" mask="url(#time-selections-ai)" transform="rotate(-180 181 3)" xlink:href="#time-selections-w"/></g><g transform="translate(0 90)"><use stroke-width="4" mask="url(#time-selections-aj)" opacity=".4" xlink:href="#time-selections-x"/><path stroke-opacity=".5" stroke-width="2" d="M1 17h134M0 46h134M8 11v42m119-42v42"/><use stroke-width="2" mask="url(#time-selections-ak)" opacity=".4" xlink:href="#time-selections-y"/><use stroke-width="2" mask="url(#time-selections-al)" opacity=".4" xlink:href="#time-selections-z"/><use stroke-width="2" mask="url(#time-selections-am)" opacity=".4" xlink:href="#time-selections-A"/><use stroke-width="2" mask="url(#time-selections-an)" opacity=".4" xlink:href="#time-selections-B"/><path stroke-linecap="square" stroke-width="2" d="M23 32h15"/><use stroke-linecap="square" stroke-width="6" mask="url(#time-selections-ao)" xlink:href="#time-selections-C"/><use stroke-linecap="square" stroke-width="6" mask="url(#time-selections-ap)" xlink:href="#time-selections-D"/><path stroke-linecap="square" stroke-width="2" d="M60 32h15"/><use stroke-linecap="square" stroke-width="6" mask="url(#time-selections-aq)" xlink:href="#time-selections-E"/><use stroke-linecap="square" stroke-width="6" mask="url(#time-selections-ar)" xlink:href="#time-selections-F"/><path stroke-linecap="square" stroke-width="2" d="M98 32h15"/><use stroke-width="4" mask="url(#time-selections-as)" xlink:href="#time-selections-G"/><use stroke-width="4" mask="url(#time-selections-at)" xlink:href="#time-selections-H"/><use stroke-width="4" mask="url(#time-selections-au)" xlink:href="#time-selections-I"/><use stroke-width="4" mask="url(#time-selections-av)" transform="rotate(-180 30 3)" xlink:href="#time-selections-J"/><use stroke-width="4" mask="url(#time-selections-aw)" transform="rotate(-180 68 3)" xlink:href="#time-selections-K"/><use stroke-width="4" mask="url(#time-selections-ax)" transform="rotate(-180 106 3)" xlink:href="#time-selections-L"/></g></g></g></g></g></svg>